<svg width="10" height="12" viewBox="0 0 10 12" fill="none" xmlns="http://www.w3.org/2000/svg">
<path d="M1.36627 9.10741C1.37734 9.11433 1.38703 9.12125 1.3981 9.1254L3.15335 10.1373L3.19626 10.1664C3.20041 10.1664 3.20318 10.1705 3.20318 10.1705L4.70787 11.0398C4.71618 11.0454 4.72587 11.0468 4.73418 11.0509C4.76048 11.0648 4.78955 11.0744 4.82 11.0744C4.82969 11.0744 4.838 11.0703 4.84768 11.0689C4.85737 11.0675 4.86706 11.0675 4.87675 11.0634C4.87675 11.0634 4.87814 11.0634 4.87814 11.062C4.88783 11.0592 4.89613 11.0551 4.90444 11.0495C4.91275 11.0454 4.92382 11.0426 4.93074 11.0371L9.55002 8.36959C9.60678 8.33776 9.64 8.27685 9.64 8.21594V2.85885C9.64 2.82978 9.63308 2.79794 9.61508 2.76887C9.60124 2.7398 9.57632 2.71904 9.55141 2.70104L4.90998 0.0238785C4.85599 -0.00795951 4.78539 -0.00795951 4.73141 0.0238785L0.089977 2.70243C0.0609075 2.72042 0.0401436 2.74118 0.0221482 2.77025C0.0152269 2.78133 0.011074 2.79517 0.0083055 2.80625C0.00415271 2.8104 0.00415275 2.81732 0.00415275 2.82424C-3.6871e-08 2.83531 0 2.845 0 2.86023V2.88515V8.21871C0 8.27962 0.031838 8.34052 0.089977 8.37236L1.36627 9.10741ZM4.99995 5.63983L9.28148 3.16615V8.11351L4.99995 10.5844V5.63983ZM0.358524 3.17031L4.64143 5.63983V10.5844L3.44681 9.89505V6.43716C3.44681 6.41917 3.44266 6.40533 3.43989 6.3901C3.43574 6.37626 3.43297 6.36103 3.4219 6.34719C3.41774 6.34027 3.41082 6.32919 3.4039 6.32227C3.39975 6.31535 3.39698 6.3112 3.39283 6.3112C3.39283 6.30704 3.38867 6.30427 3.38175 6.30012C3.37483 6.2932 3.36791 6.28628 3.35683 6.28213C3.34991 6.27797 3.34299 6.27521 3.33884 6.27105L1.56975 5.25224C1.56283 5.24808 1.55868 5.24531 1.55176 5.24116C1.54068 5.23424 1.52684 5.23009 1.513 5.22732C1.49916 5.22317 1.48393 5.2204 1.47009 5.2204C1.45209 5.2204 1.43825 5.22455 1.42302 5.22732C1.40918 5.23147 1.39395 5.23424 1.38426 5.24531C1.38011 5.24531 1.37319 5.24947 1.37042 5.25224C1.35935 5.25916 1.35242 5.26608 1.34135 5.273C1.31228 5.30484 1.29152 5.3519 1.29152 5.39758V8.6506L0.358524 8.11074V3.17031Z" fill="#1F41BB"/>
<path d="M8.80465 5.03334C8.8005 5.02226 8.79358 5.01534 8.78665 5.00842C8.77973 4.99735 8.76866 4.98766 8.75758 4.97935C8.75343 4.9752 8.74651 4.97243 8.73959 4.96828C8.71467 4.95028 8.68283 4.94336 8.64961 4.94336C8.61362 4.94336 8.57763 4.95443 8.54994 4.97243L7.15599 5.78084C7.14492 5.78499 7.13523 5.79191 7.12416 5.79883L5.73297 6.60309C5.72882 6.60724 5.7219 6.61001 5.71498 6.61416C5.7039 6.61832 5.69698 6.62524 5.69006 6.63216C5.68314 6.63631 5.67899 6.63908 5.67899 6.64323C5.67206 6.64739 5.66514 6.65431 5.66099 6.66123C5.65407 6.6723 5.643 6.68614 5.64023 6.69722C5.63607 6.70829 5.63331 6.72214 5.62915 6.73321C5.625 6.74428 5.625 6.75813 5.625 6.7692V6.79412V8.97156V8.98956C5.625 9.0034 5.625 9.01447 5.62915 9.02555C5.63331 9.03662 5.63607 9.05046 5.64023 9.06154C5.66514 9.12521 5.7302 9.16813 5.80495 9.16813C5.84787 9.16813 5.88386 9.15428 5.91569 9.13214L7.29857 8.33203C7.31242 8.32511 7.32764 8.31819 7.33733 8.31127L8.72021 7.51116C8.74513 7.50009 8.76727 7.4821 8.78389 7.46133C8.79496 7.44749 8.80465 7.43226 8.81295 7.41427C8.82403 7.3935 8.8268 7.37135 8.8268 7.34644V5.12331C8.8268 5.10532 8.82265 5.09148 8.81988 5.07625C8.81988 5.06241 8.81296 5.04856 8.80465 5.03334Z" fill="#1F41BB"/>
</svg>
