<svg width="18" height="14" viewBox="0 0 18 14" fill="none" xmlns="http://www.w3.org/2000/svg">
<path d="M17.6897 14H9C8.91769 14 8.83875 13.9649 8.78055 13.9024C8.72235 13.8399 8.68966 13.7551 8.68966 13.6667V12H0.62069V13.3333H7.13793C7.22024 13.3333 7.29918 13.3685 7.35738 13.431C7.41558 13.4935 7.44828 13.5783 7.44828 13.6667C7.44828 13.7551 7.41558 13.8399 7.35738 13.9024C7.29918 13.9649 7.22024 14 7.13793 14H0.310345C0.228036 14 0.149099 13.9649 0.0908979 13.9024C0.0326969 13.8399 0 13.7551 0 13.6667V10.3333C0 10.2449 0.0326969 10.1601 0.0908979 10.0976C0.149099 10.0351 0.228036 10 0.310345 10C0.392653 10 0.471591 10.0351 0.529792 10.0976C0.587993 10.1601 0.62069 10.2449 0.62069 10.3333V11.3333H4.34483V2.66667H0.62069V8.33333C0.62069 8.42174 0.587993 8.50652 0.529792 8.56904C0.471591 8.63155 0.392653 8.66667 0.310345 8.66667C0.228036 8.66667 0.149099 8.63155 0.0908979 8.56904C0.0326969 8.50652 0 8.42174 0 8.33333V0.333333C0 0.244927 0.0326969 0.160143 0.0908979 0.0976305C0.149099 0.0351181 0.228036 0 0.310345 0H13.9655C14.0478 0 14.1268 0.0351181 14.185 0.0976305C14.2432 0.160143 14.2759 0.244927 14.2759 0.333333C14.2759 0.421739 14.2432 0.506523 14.185 0.569036C14.1268 0.631548 14.0478 0.666666 13.9655 0.666666H9.31034V2H17.3793V0.666666H15.8276C15.7453 0.666666 15.6663 0.631548 15.6081 0.569036C15.5499 0.506523 15.5172 0.421739 15.5172 0.333333C15.5172 0.244927 15.5499 0.160143 15.6081 0.0976305C15.6663 0.0351181 15.7453 0 15.8276 0H17.6897C17.772 0 17.8509 0.0351181 17.9091 0.0976305C17.9673 0.160143 18 0.244927 18 0.333333V13.6667C18 13.7551 17.9673 13.8399 17.9091 13.9024C17.8509 13.9649 17.772 14 17.6897 14ZM9.31034 13.3333H17.3793V12H9.31034V13.3333ZM13.0345 7.33333H9.31034V11.3333H13.0345V7.33333ZM8.68966 11.3333V7.33333H4.96552V11.3333H8.68966ZM4.96552 6.66667H8.68966V2.66667H4.96552V6.66667ZM8.68966 0.666666H0.62069V2H8.68966V0.666666ZM9.31034 2.66667V6.66667H13.0345V2.66667H9.31034ZM13.6552 2.66667V11.3333H17.3793V2.66667H13.6552Z" fill="black"/>
</svg>
