<svg width="21" height="21" viewBox="0 0 21 21" fill="none" xmlns="http://www.w3.org/2000/svg">
<path d="M6.3 13.65H8.4V10.5H12.075V13.125L15.75 9.45L12.075 5.775V8.4H7.35C7.0525 8.4 6.80312 8.50062 6.60187 8.70187C6.40062 8.90312 6.3 9.1525 6.3 9.45V13.65ZM10.5 21C10.2375 21 9.97937 20.9475 9.72562 20.8425C9.47187 20.7375 9.24 20.58 9.03 20.37L0.63 11.97C0.42 11.76 0.2625 11.5281 0.1575 11.2744C0.0525 11.0206 0 10.7625 0 10.5C0 10.2375 0.0525 9.97937 0.1575 9.72562C0.2625 9.47187 0.42 9.24 0.63 9.03L9.03 0.63C9.24 0.42 9.47187 0.2625 9.72562 0.1575C9.97937 0.0525 10.2375 0 10.5 0C10.7625 0 11.0206 0.0525 11.2744 0.1575C11.5281 0.2625 11.76 0.42 11.97 0.63L20.37 9.03C20.58 9.24 20.7375 9.47187 20.8425 9.72562C20.9475 9.97937 21 10.2375 21 10.5C21 10.7625 20.9475 11.0206 20.8425 11.2744C20.7375 11.5281 20.58 11.76 20.37 11.97L11.97 20.37C11.76 20.58 11.5281 20.7375 11.2744 20.8425C11.0206 20.9475 10.7625 21 10.5 21Z" fill="#3DBE64"/>
</svg>
