<svg width="25" height="30" viewBox="0 0 25 30" fill="none" xmlns="http://www.w3.org/2000/svg">
<path d="M6.846 5.91371C6.57955 4.98067 5.95562 4.19049 5.10983 3.7149C4.26403 3.2393 3.26472 3.11672 2.32905 3.3738C2.27012 3.38776 2.21182 3.40421 2.15429 3.42311C-0.518573 4.31407 -0.730858 7.94114 1.66646 9.26631L6.99503 12.2147C7.21057 12.3339 7.46461 12.3625 7.70126 12.2943C7.93792 12.2262 8.1378 12.0668 8.25695 11.8513C8.37609 11.6357 8.40473 11.3817 8.33657 11.145C8.26841 10.9084 8.10903 10.7085 7.89349 10.5893L2.56492 7.64094C1.51207 7.05876 1.68254 5.54382 2.73646 5.18787L2.74182 5.18572L2.81688 5.16642C3.78074 4.89839 4.78319 5.4559 5.06088 6.4262C5.09453 6.54348 5.15095 6.65299 5.22692 6.74847C5.30289 6.84394 5.39693 6.92352 5.50365 6.98266C5.61038 7.0418 5.72771 7.07934 5.84894 7.09313C5.97017 7.10692 6.09294 7.0967 6.21022 7.06305C6.3275 7.0294 6.43701 6.97298 6.53249 6.89701C6.62797 6.82104 6.70755 6.727 6.76668 6.62028C6.82582 6.51355 6.86336 6.39622 6.87715 6.27499C6.89094 6.15376 6.87965 6.03099 6.846 5.91371ZM19.6474 6.4262C19.713 6.19407 19.824 5.97727 19.974 5.78836C20.124 5.59946 20.31 5.44221 20.5213 5.32572C20.7325 5.20924 20.9647 5.13584 21.2045 5.10979C21.4443 5.08373 21.6869 5.10553 21.9182 5.17393L21.9665 5.18572L21.974 5.18787C23.0258 5.54382 23.1962 7.05876 22.1434 7.64094L16.8148 10.5893C16.7081 10.6485 16.6141 10.7281 16.5381 10.8235C16.4621 10.919 16.4057 11.0285 16.3721 11.1458C16.3384 11.2631 16.3282 11.3858 16.342 11.5071C16.3558 11.6283 16.3933 11.7456 16.4524 11.8523C16.5116 11.9591 16.5911 12.0531 16.6866 12.1291C16.7821 12.205 16.8916 12.2614 17.0089 12.2951C17.1262 12.3287 17.2489 12.339 17.3701 12.3252C17.4914 12.3114 17.6087 12.2739 17.7154 12.2147L23.044 9.26631C25.4402 7.94114 25.228 4.31407 22.5551 3.42311C22.4972 3.40419 22.4385 3.38773 22.3793 3.3738C21.4435 3.11676 20.444 3.23949 19.5982 3.7153C18.7524 4.19111 18.1285 4.98155 17.8623 5.91478C17.8287 6.03207 17.8186 6.15482 17.8324 6.27602C17.8463 6.39723 17.8839 6.51452 17.9431 6.62119C18.0626 6.83664 18.2628 6.99577 18.4997 7.06359C18.7366 7.13141 18.9907 7.10235 19.2061 6.98282C19.4216 6.86328 19.5807 6.66306 19.6485 6.4262M14.1452 16.6234V12.0989H10.5642V16.6234C10.5642 17.4168 10.2104 18.178 9.59927 18.6819L7.54075 20.3973H17.1686L15.1101 18.6819C14.8088 18.43 14.5663 18.1152 14.3996 17.7595C14.2329 17.4039 14.1461 17.0161 14.1452 16.6234Z" fill="white"/>
<path d="M12.3557 15.589C10.3737 15.589 8.473 14.8017 7.07156 13.4003C5.67013 11.9988 4.88281 10.0981 4.88281 8.11615V0.761224C4.88281 0.343087 5.2259 0 5.64404 0H19.078C19.4962 0 19.8393 0.343087 19.8393 0.761224V8.11615C19.8393 12.2439 16.4942 15.589 12.3557 15.589Z" fill="white"/>
<path d="M20.0016 20.4062H4.35367C3.52812 20.4062 2.82801 20.953 2.66933 21.7143L0.938885 29.3158C0.860619 29.6696 1.14259 30.002 1.52749 30.002H22.8396C23.2245 30.002 23.5065 29.6696 23.4282 29.3158L21.6978 21.7143C21.5284 20.953 20.8272 20.4062 20.0016 20.4062Z" fill="white"/>
<path d="M15.2769 23.5469H9.09492C9.00664 23.5485 8.91956 23.5676 8.83869 23.6031C8.75782 23.6385 8.68474 23.6896 8.62367 23.7533C8.56259 23.8171 8.51472 23.8923 8.48281 23.9746C8.45089 24.057 8.43556 24.1448 8.4377 24.2331V26.1736C8.4377 26.5489 8.72503 26.8598 9.09492 26.8598H15.2769C15.6361 26.8598 15.9341 26.5596 15.9341 26.1736V24.2331C15.9341 23.8578 15.6468 23.5469 15.2769 23.5469Z" fill="#264ACC"/>
</svg>
