<svg width="124" height="124" viewBox="0 0 124 124" fill="none" xmlns="http://www.w3.org/2000/svg">
<path d="M58.3099 23.002C50.135 23.002 42.1436 25.4261 35.3463 29.9679C28.5491 34.5096 23.2513 40.965 20.1229 48.5177C16.9945 56.0704 16.1759 64.3811 17.7708 72.399C19.3656 80.4169 23.3023 87.7818 29.0828 93.5624C34.8634 99.3429 42.2283 103.28 50.2462 104.874C58.2641 106.469 66.5748 105.651 74.1275 102.522C81.6802 99.3939 88.1356 94.0961 92.6773 87.2989C97.2191 80.5016 99.6432 72.5102 99.6432 64.3353C99.6309 53.3768 95.2722 42.8706 87.5234 35.1218C79.7746 27.373 69.2684 23.0143 58.3099 23.002ZM58.3099 102.716C50.7189 102.716 43.2983 100.465 36.9866 96.2479C30.6749 92.0305 25.7555 86.0362 22.8505 79.023C19.9456 72.0098 19.1855 64.2927 20.6664 56.8475C22.1474 49.4024 25.8028 42.5635 31.1705 37.1959C36.5382 31.8282 43.377 28.1728 50.8222 26.6918C58.2673 25.2109 65.9845 25.9709 72.9977 28.8759C80.0109 31.7809 86.0052 36.7003 90.2225 43.012C94.4399 49.3237 96.6909 56.7443 96.6909 64.3353C96.6793 74.511 92.6319 84.2667 85.4366 91.462C78.2413 98.6573 68.4856 102.705 58.3099 102.716Z" fill="#CE1313"/>
<path d="M107.556 108.437H74.7404C85.1291 104.582 93.8323 97.1988 99.328 87.5771C104.824 77.9553 106.762 66.7078 104.804 55.8015C102.846 44.8952 97.1166 35.0243 88.6173 27.9149C80.118 20.8056 69.39 16.9103 58.3093 16.9103C47.2286 16.9103 36.5006 20.8056 28.0013 27.9149C19.502 35.0243 13.7724 44.8952 11.8145 55.8015C9.85656 66.7078 11.7949 77.9553 17.2906 87.5771C22.7863 97.1988 31.4895 104.582 41.8782 108.437H9.06248C8.85247 108.409 8.63903 108.427 8.4364 108.489C8.23377 108.55 8.04662 108.654 7.88746 108.794C7.72829 108.934 7.60077 109.106 7.51341 109.299C7.42605 109.492 7.38086 109.701 7.38086 109.913C7.38086 110.125 7.42605 110.334 7.51341 110.527C7.60077 110.72 7.72829 110.892 7.88746 111.032C8.04662 111.171 8.23377 111.276 8.4364 111.337C8.63903 111.399 8.85247 111.417 9.06248 111.389H107.556C107.766 111.417 107.98 111.399 108.182 111.337C108.385 111.276 108.572 111.171 108.731 111.032C108.89 110.892 109.018 110.72 109.105 110.527C109.193 110.334 109.238 110.125 109.238 109.913C109.238 109.701 109.193 109.492 109.105 109.299C109.018 109.106 108.89 108.934 108.731 108.794C108.572 108.654 108.385 108.55 108.182 108.489C107.98 108.427 107.766 108.409 107.556 108.437ZM14.024 64.151C14.024 55.3921 16.6213 46.8299 21.4874 39.5472C26.3536 32.2644 33.2701 26.5882 41.3623 23.2363C49.4544 19.8845 58.3588 19.0075 66.9494 20.7162C75.54 22.425 83.4309 26.6428 89.6244 32.8363C95.8179 39.0297 100.036 46.9207 101.744 55.5113C103.453 64.1019 102.576 73.0063 99.2243 81.0984C95.8725 89.1906 90.1962 96.107 82.9135 100.973C75.6307 105.839 67.0686 108.437 58.3097 108.437C46.5684 108.423 35.3119 103.753 27.0096 95.4511C18.7073 87.1488 14.0372 75.8922 14.024 64.151ZM61.6311 13.0379C62.069 13.0379 62.4972 12.908 62.8613 12.6647C63.2254 12.4214 63.5092 12.0756 63.6768 11.671C63.8444 11.2664 63.8883 10.8212 63.8028 10.3916C63.7174 9.96211 63.5065 9.56756 63.1968 9.25789C62.8872 8.94822 62.4926 8.73733 62.0631 8.65189C61.6336 8.56645 61.1883 8.6103 60.7837 8.77789C60.3791 8.94549 60.0333 9.2293 59.79 9.59343C59.5467 9.95757 59.4168 10.3857 59.4168 10.8236C59.4174 11.4107 59.6509 11.9736 60.066 12.3887C60.4811 12.8038 61.044 13.0373 61.6311 13.0379ZM61.6311 9.71648C61.8501 9.71648 62.0641 9.78142 62.2462 9.90307C62.4283 10.0247 62.5702 10.1976 62.654 10.3999C62.7378 10.6022 62.7597 10.8249 62.717 11.0396C62.6742 11.2544 62.5688 11.4517 62.414 11.6065C62.2591 11.7613 62.0619 11.8668 61.8471 11.9095C61.6323 11.9522 61.4097 11.9303 61.2074 11.8465C61.0051 11.7627 60.8322 11.6208 60.7105 11.4387C60.5889 11.2567 60.524 11.0426 60.524 10.8236C60.5242 10.5301 60.6409 10.2486 60.8484 10.041C61.056 9.83339 61.3375 9.71668 61.6311 9.71648ZM113.154 50.1272C112.862 50.1272 112.576 50.2138 112.334 50.376C112.091 50.5382 111.902 50.7687 111.79 51.0385C111.678 51.3082 111.649 51.605 111.706 51.8914C111.763 52.1777 111.904 52.4408 112.11 52.6472C112.316 52.8537 112.579 52.9943 112.866 53.0512C113.152 53.1082 113.449 53.0789 113.719 52.9672C113.988 52.8555 114.219 52.6663 114.381 52.4235C114.543 52.1808 114.63 51.8953 114.63 51.6034C114.63 51.212 114.474 50.8368 114.197 50.56C113.92 50.2832 113.545 50.1276 113.154 50.1272ZM113.154 52.3415C113.008 52.3415 112.865 52.2982 112.744 52.2171C112.622 52.136 112.528 52.0207 112.472 51.8858C112.416 51.751 112.401 51.6026 112.43 51.4594C112.458 51.3162 112.529 51.1847 112.632 51.0815C112.735 50.9782 112.867 50.908 113.01 50.8795C113.153 50.851 113.301 50.8656 113.436 50.9215C113.571 50.9773 113.686 51.0719 113.768 51.1933C113.849 51.3147 113.892 51.4574 113.892 51.6034C113.892 51.7991 113.814 51.9867 113.676 52.1251C113.537 52.2635 113.35 52.3413 113.154 52.3415ZM92.2621 2.64258C91.9701 2.64258 91.6847 2.72916 91.4419 2.89136C91.1992 3.05357 91.01 3.28412 90.8982 3.55386C90.7865 3.82359 90.7573 4.12041 90.8142 4.40676C90.8712 4.69311 91.0118 4.95614 91.2182 5.16259C91.4247 5.36904 91.6877 5.50964 91.9741 5.56659C92.2604 5.62355 92.5572 5.59432 92.827 5.48259C93.0967 5.37086 93.3272 5.18165 93.4895 4.9389C93.6517 4.69614 93.7382 4.41073 93.7382 4.11877C93.7379 3.72738 93.5822 3.35213 93.3055 3.07538C93.0287 2.79862 92.6534 2.64297 92.2621 2.64258ZM92.2621 4.85686C92.1161 4.85686 91.9734 4.81358 91.852 4.73247C91.7306 4.65137 91.636 4.53609 91.5801 4.40123C91.5243 4.26636 91.5097 4.11795 91.5381 3.97477C91.5666 3.8316 91.6369 3.70008 91.7401 3.59686C91.8434 3.49363 91.9749 3.42334 92.1181 3.39486C92.2612 3.36638 92.4096 3.38099 92.5445 3.43686C92.6794 3.49272 92.7947 3.58733 92.8758 3.7087C92.9569 3.83008 93.0002 3.97279 93.0002 4.11877C93 4.31446 92.9221 4.50209 92.7838 4.64046C92.6454 4.77884 92.4577 4.85667 92.2621 4.85686ZM115.389 11.2539C115.097 11.2539 114.811 11.3405 114.569 11.5027C114.326 11.6649 114.137 11.8955 114.025 12.1652C113.913 12.4349 113.884 12.7318 113.941 13.0181C113.998 13.3045 114.139 13.5675 114.345 13.7739C114.551 13.9804 114.814 14.121 115.101 14.178C115.387 14.2349 115.684 14.2057 115.954 14.0939C116.223 13.9822 116.454 13.793 116.616 13.5503C116.778 13.3075 116.865 13.0221 116.865 12.7301C116.865 12.3387 116.709 11.9635 116.432 11.6867C116.155 11.41 115.78 11.2543 115.389 11.2539ZM115.389 13.4682C115.243 13.4682 115.1 13.4249 114.979 13.3438C114.857 13.2627 114.763 13.1475 114.707 13.0126C114.651 12.8777 114.636 12.7293 114.665 12.5861C114.693 12.443 114.764 12.3114 114.867 12.2082C114.97 12.105 115.102 12.0347 115.245 12.0062C115.388 11.9777 115.536 11.9923 115.671 12.0482C115.806 12.1041 115.921 12.1987 116.003 12.3201C116.084 12.4414 116.127 12.5841 116.127 12.7301C116.127 12.9258 116.049 13.1134 115.91 13.2518C115.772 13.3902 115.584 13.468 115.389 13.4682ZM18.6776 22.5711C18.6776 22.2792 18.5911 21.9938 18.4289 21.751C18.2667 21.5083 18.0361 21.3191 17.7664 21.2073C17.4966 21.0956 17.1998 21.0664 16.9135 21.1233C16.6271 21.1803 16.3641 21.3209 16.1576 21.5273C15.9512 21.7338 15.8106 21.9968 15.7536 22.2832C15.6967 22.5695 15.7259 22.8663 15.8376 23.1361C15.9494 23.4058 16.1386 23.6364 16.3813 23.7986C16.6241 23.9608 16.9095 24.0473 17.2015 24.0473C17.5928 24.0469 17.9681 23.8913 18.2448 23.6145C18.5216 23.3378 18.6773 22.9625 18.6776 22.5711ZM16.4634 22.5711C16.4634 22.4252 16.5066 22.2825 16.5878 22.1611C16.6689 22.0397 16.7841 21.9451 16.919 21.8892C17.0539 21.8334 17.2023 21.8188 17.3454 21.8472C17.4886 21.8757 17.6201 21.946 17.7234 22.0492C17.8266 22.1525 17.8969 22.284 17.9254 22.4272C17.9538 22.5703 17.9392 22.7187 17.8834 22.8536C17.8275 22.9885 17.7329 23.1038 17.6115 23.1849C17.4901 23.266 17.3474 23.3092 17.2015 23.3092C17.0058 23.309 16.8181 23.2312 16.6798 23.0928C16.5414 22.9545 16.4636 22.7668 16.4634 22.5711Z" fill="#CE1313"/>
<path d="M14.9046 50.1347L16.0021 48.691L15.3091 48.2983L14.6042 49.9147H14.5813L13.8654 48.3101L13.1605 48.7139L14.2462 50.1236V50.1465L12.5479 49.9266V50.7119L14.2573 50.4927V50.5156L13.1605 51.9246L13.8181 52.3409L14.5695 50.7119H14.5924L15.2854 52.3291L16.0132 51.9135L14.9046 50.5274V50.5037L16.648 50.7119V49.9266L14.9046 50.1576V50.1347ZM15.8449 4.60382L15.2131 5.41499L15.5918 5.65487L16.0243 4.71675H16.0376L16.4369 5.64822L16.8561 5.40834L16.2177 4.61046V4.59718L17.2215 4.71675V4.2643L16.2177 4.39789V4.38461L16.8495 3.55277L16.4502 3.32692L16.0449 4.25765H16.0309L15.6191 3.33356L15.2131 3.56606L15.8383 4.37796V4.39125L14.8603 4.2643V4.71675L15.8449 4.59053V4.60382ZM55.0695 4.64515V3.87458L53.3594 4.10118V4.0783L54.4355 2.66263L53.7557 2.27734L53.0649 3.86351H53.042L52.34 2.28842L51.6484 2.68551L52.7135 4.06722V4.09011L51.0476 3.87458V4.64515L52.7246 4.42963V4.45251L51.6484 5.83422L52.2943 6.24239L53.0309 4.64515H53.053L53.7328 6.23058L54.4466 5.82315L53.3594 4.46358V4.4407L55.0695 4.64515ZM109.359 26.4522L110.287 25.2306L109.7 24.8985L109.105 26.2662H109.085L108.48 24.9081L107.882 25.2498L108.801 26.4426V26.4618L107.365 26.2758V26.9401L108.811 26.7548V26.7747L107.882 27.966L108.44 28.3181L109.075 26.9401H109.094L109.68 28.3085L110.297 27.9564L109.359 26.7843V26.7644L110.833 26.9401V26.2758L109.359 26.4714V26.4522Z" fill="#CE1313"/>
<path d="M61.9996 111.39C62.8149 111.39 63.4758 110.729 63.4758 109.914C63.4758 109.098 62.8149 108.438 61.9996 108.438C61.1844 108.438 60.5234 109.098 60.5234 109.914C60.5234 110.729 61.1844 111.39 61.9996 111.39Z" fill="#CE1313"/>
<path d="M8.11919 108.438H5.9049C5.51339 108.438 5.13792 108.593 4.86108 108.87C4.58424 109.147 4.42871 109.522 4.42871 109.914C4.42871 110.305 4.58424 110.681 4.86108 110.958C5.13792 111.234 5.51339 111.39 5.9049 111.39H8.11919C8.5107 111.39 8.88617 111.234 9.16301 110.958C9.43985 110.681 9.59538 110.305 9.59538 109.914C9.59538 109.522 9.43985 109.147 9.16301 108.87C8.88617 108.593 8.5107 108.438 8.11919 108.438ZM118.095 108.438H115.881C115.49 108.438 115.114 108.593 114.837 108.87C114.56 109.147 114.405 109.522 114.405 109.914C114.405 110.305 114.56 110.681 114.837 110.958C115.114 111.234 115.49 111.39 115.881 111.39H118.095C118.487 111.39 118.862 111.234 119.139 110.958C119.416 110.681 119.572 110.305 119.572 109.914C119.572 109.522 119.416 109.147 119.139 108.87C118.862 108.593 118.487 108.438 118.095 108.438Z" fill="#CE1313"/>
<path d="M61.9996 111.39C62.8149 111.39 63.4758 110.729 63.4758 109.914C63.4758 109.098 62.8149 108.438 61.9996 108.438C61.1844 108.438 60.5234 109.098 60.5234 109.914C60.5234 110.729 61.1844 111.39 61.9996 111.39Z" fill="#CE1313"/>
<path d="M87.2127 114.342H81.0806C80.7089 114.371 80.3617 114.539 80.1084 114.812C79.8551 115.086 79.7144 115.445 79.7144 115.818C79.7144 116.191 79.8551 116.55 80.1084 116.824C80.3617 117.097 80.7089 117.265 81.0806 117.294H87.2127C87.5845 117.265 87.9317 117.097 88.1849 116.824C88.4382 116.55 88.5789 116.191 88.5789 115.818C88.5789 115.445 88.4382 115.086 88.1849 114.812C87.9317 114.539 87.5845 114.371 87.2127 114.342ZM42.927 114.342H36.7949C36.4231 114.371 36.0759 114.539 35.8227 114.812C35.5694 115.086 35.4287 115.445 35.4287 115.818C35.4287 116.191 35.5694 116.55 35.8227 116.824C36.0759 117.097 36.4231 117.265 36.7949 117.294H42.927C43.2988 117.265 43.646 117.097 43.8992 116.824C44.1525 116.55 44.2932 116.191 44.2932 115.818C44.2932 115.445 44.1525 115.086 43.8992 114.812C43.646 114.539 43.2988 114.371 42.927 114.342ZM76.7657 114.342H47.2419C46.8504 114.342 46.4749 114.497 46.1981 114.774C45.9212 115.051 45.7657 115.426 45.7657 115.818C45.7657 116.209 45.9212 116.585 46.1981 116.862C46.4749 117.139 46.8504 117.294 47.2419 117.294H59.0071V118.77H53.1467C52.7551 118.77 52.3797 118.926 52.1028 119.203C51.826 119.48 51.6705 119.855 51.6705 120.247C51.6705 120.638 51.826 121.014 52.1028 121.29C52.3797 121.567 52.7551 121.723 53.1467 121.723H71.599C71.9906 121.723 72.366 121.567 72.6429 121.29C72.9197 121.014 73.0752 120.638 73.0752 120.247C73.0752 119.855 72.9197 119.48 72.6429 119.203C72.366 118.926 71.9906 118.77 71.599 118.77H65.0005V117.294H76.7657C77.1572 117.294 77.5327 117.139 77.8095 116.862C78.0864 116.585 78.2419 116.209 78.2419 115.818C78.2419 115.426 78.0864 115.051 77.8095 114.774C77.5327 114.497 77.1572 114.342 76.7657 114.342Z" fill="#CE1313"/>
<path d="M42.8096 49.8223L73.0715 80.0842" stroke="#CE1313" stroke-width="4" stroke-linecap="round"/>
<path d="M73.0713 49.8223L42.8094 80.0842" stroke="#CE1313" stroke-width="4" stroke-linecap="round"/>
</svg>
