<svg width="36" height="30" viewBox="0 0 36 30" fill="none" xmlns="http://www.w3.org/2000/svg">
<path d="M7.65806 0L5.11685 9.95392H6.53356L8.75961 1.24424H7.94758L6.37175 9.95392H9.9759L10.7485 5.6682H17.3119V9.95392H18.6889V5.6682H25.2522L26.0249 9.95392H29.4672L27.8914 1.24424H27.2412L29.4672 9.95392H30.8824L28.3427 0H7.65806ZM11.5517 1.24424H24.449L25.0304 4.42396H10.9704L11.5517 1.24424ZM4.00153 11.1982V13.2719H31.9992V11.1982H4.00153ZM3.95257 14.5161L0 30H36L32.0451 14.5161H30.63L34.2712 28.7558L34.5 28.6364L30.7738 14.5161H26.851L27.9373 20.53H18.6889V14.5161H17.3119V20.53H8.06349L9.14974 14.5161H4.30446L1.73035 28.7558L5.36852 14.5161H3.95257ZM7.834 21.7742H28.1668L29.429 28.7558H6.57181L7.834 21.7742Z" fill="white"/>
</svg>
