<svg width="32" height="32" viewBox="0 0 32 32" fill="none" xmlns="http://www.w3.org/2000/svg">
<path d="M1 16C1 24.2845 7.7155 31 16 31C24.2845 31 31 24.2845 31 16C31 7.7155 24.2845 1 16 1C7.7155 1 1 7.7155 1 16Z" stroke="white" stroke-width="2" stroke-linecap="round" stroke-linejoin="round"/>
<path d="M19 19.375C19 19.996 19.504 20.5 20.125 20.5H22C22.3978 20.5 22.7794 20.342 23.0607 20.0607C23.342 19.7794 23.5 19.3978 23.5 19V17.5C23.5 17.1022 23.342 16.7206 23.0607 16.4393C22.7794 16.158 22.3978 16 22 16H20.5C20.1022 16 19.7206 15.842 19.4393 15.5607C19.158 15.2794 19 14.8978 19 14.5V13C19 12.6022 19.158 12.2206 19.4393 11.9393C19.7206 11.658 20.1022 11.5 20.5 11.5H22.375C22.6734 11.5 22.9595 11.6185 23.1705 11.8295C23.3815 12.0405 23.5 12.3266 23.5 12.625M8.5 11.5L11.5 20.5L14.5 11.5" stroke="white" stroke-width="2" stroke-linecap="round" stroke-linejoin="round"/>
</svg>
