<svg width="14" height="14" viewBox="0 0 14 14" fill="none" xmlns="http://www.w3.org/2000/svg">
<g clip-path="url(#clip0_1480_14852)">
<path d="M12.8327 6.46407V7.00074C12.832 8.25865 12.4246 9.48263 11.6715 10.4901C10.9183 11.4976 9.8596 12.2347 8.65331 12.5913C7.44702 12.948 6.15775 12.9052 4.97779 12.4692C3.79783 12.0333 2.7904 11.2276 2.10574 10.1724C1.42109 9.11709 1.09589 7.86877 1.17866 6.61359C1.26143 5.3584 1.74772 4.16359 2.56501 3.20736C3.3823 2.25113 4.48681 1.58471 5.71379 1.30749C6.94078 1.03027 8.22451 1.1571 9.37352 1.66907M12.8327 2.33407L6.99935 8.17324L5.24935 6.42324" stroke="#3DBE64" stroke-width="1.5" stroke-linecap="round" stroke-linejoin="round"/>
</g>
<defs>
<clipPath id="clip0_1480_14852">
<rect width="14" height="14" fill="white"/>
</clipPath>
</defs>
</svg>
