<svg width="20" height="20" viewBox="0 0 20 20" fill="none" xmlns="http://www.w3.org/2000/svg">
<path d="M2.89085 20C3.62131 20 4.34398 19.8828 5.03798 19.6537L6.08744 19.3034C7.35048 18.8829 8.67078 18.6667 10.0001 18.6667C11.3294 18.6667 12.6498 18.8803 13.9128 19.3034L14.9622 19.6537C15.6549 19.8841 16.375 20 17.1094 20C18.7031 20 20 18.7032 20 17.1096C20 16.8726 19.9701 16.6357 19.9128 16.4091L19 12.6724V8.99932C19 4.03603 14.9637 0 10 0C5.03634 0 1.00001 4.03603 1.00001 8.99932V12.749L0.0872402 16.4051C0.0299469 16.6356 0 16.8686 0 17.1056C0 18.6992 1.29687 19.996 2.89063 19.996L2.89085 20ZM11.6368 1.37506L12.9571 1.92842C15.8165 3.12887 17.6668 5.90479 17.6668 8.99822V12.3573L16.8074 12.0943C16.0639 11.8678 15.297 11.6712 14.534 11.5071L14.0106 11.3978L14.0041 10.8639C13.9676 7.09721 12.9546 4.43074 12.1134 2.85786L11.4364 1.59492C11.3661 1.46472 11.5001 1.31517 11.6368 1.37506ZM10.0001 1.92189L10.5665 2.82809C11.4571 4.25115 12.5431 6.7248 12.6629 10.4175L12.6863 11.1779L11.9298 11.101C10.6134 10.9708 9.38685 10.9708 8.07048 11.101L7.31398 11.1779L7.33742 10.4175C7.45721 6.7278 8.54445 4.25531 9.43378 2.82809L10.0001 1.92189ZM2.33345 9.00069C2.33345 5.90456 4.17981 3.13147 7.04311 1.93089L8.36341 1.37753C8.50013 1.32024 8.63294 1.46737 8.56393 1.59757L7.88686 2.86051C7.04313 4.43332 6.034 7.09985 5.99623 10.8666L5.98972 11.4004L5.46629 11.5098C4.69935 11.6725 3.93635 11.8691 3.19285 12.097L2.33349 12.36L2.33345 9.00069ZM1.38031 16.7304L2.09385 13.8778L2.42718 13.758C3.61338 13.331 6.73051 12.335 10.0002 12.335C13.2698 12.335 16.3828 13.331 17.5732 13.758L17.9065 13.8778L18.62 16.7304C18.65 16.8502 18.6669 16.9804 18.6669 17.1067C18.6669 17.966 17.9664 18.6639 17.1096 18.6639C16.5224 18.6639 15.9429 18.5702 15.3856 18.384L14.3362 18.0337C11.5393 17.1002 8.45985 17.1002 5.66285 18.0337L4.61338 18.384C4.05608 18.5702 3.47665 18.6639 2.88942 18.6639C2.03005 18.6639 1.33212 17.9634 1.33212 17.1067C1.33212 16.9765 1.34905 16.8502 1.37899 16.7265L1.38031 16.7304Z" fill="#374151"/>
</svg>
