<svg width="18" height="19" viewBox="0 0 18 19" fill="none" xmlns="http://www.w3.org/2000/svg">
<g clip-path="url(#clip0_182_6946)">
<mask id="mask0_182_6946" style="mask-type:luminance" maskUnits="userSpaceOnUse" x="0" y="0" width="18" height="19">
<path d="M0 0H18V19H0V0Z" fill="white"/>
</mask>
<g mask="url(#mask0_182_6946)">
<path d="M5.98079 4.24416C5.92817 4.30192 5.88525 4.3687 5.85385 4.44166L5.85006 4.43766L0.537216 17.0702L0.542427 17.0757C0.443901 17.2772 0.608742 17.6872 0.946479 18.0442C1.28374 18.4002 1.67216 18.5742 1.86306 18.4702L1.8678 18.4752L13.8364 12.8677L13.8326 12.8632C13.9027 12.8282 13.9662 12.7857 14.0197 12.7292C14.7596 11.9482 13.5597 9.41566 11.3401 7.07266C9.12037 4.72916 6.72069 3.46316 5.98079 4.24416Z" fill="#DD2E44"/>
<path d="M6.63164 6.49977L0.670795 16.7528L0.537216 17.0703L0.542427 17.0753C0.443901 17.2773 0.608742 17.6868 0.946479 18.0438C1.04804 18.1498 1.16072 18.2432 1.28232 18.3223L8.52637 8.99977L6.63164 6.49977Z" fill="#EA596E"/>
<path d="M11.374 7.03373C13.5861 9.36973 14.8144 11.8597 14.1162 12.5962C13.4184 13.3327 11.0595 12.0367 8.84597 9.70173C6.6334 7.36574 5.40561 4.87524 6.10334 4.13824C6.80155 3.40174 9.1605 4.69823 11.374 7.03373Z" fill="#A0041E"/>
<path d="M9.27955 7.30543C9.23125 7.34679 9.17563 7.3776 9.11594 7.39606C9.05625 7.41451 8.99368 7.42025 8.93187 7.41293C8.52071 7.36593 8.17492 7.21493 7.93287 6.97643C7.6766 6.72393 7.55013 6.38543 7.58471 6.04543C7.64534 5.44943 8.21187 4.90243 9.17771 5.01293C9.55334 5.05543 9.72102 4.92793 9.72624 4.86693C9.73287 4.80643 9.59502 4.64393 9.21987 4.60093C8.80824 4.55393 8.46292 4.40293 8.22039 4.16443C7.96413 3.91193 7.83718 3.57293 7.87224 3.23343C7.93381 2.63743 8.49987 2.09043 9.46476 2.20093C9.73855 2.23193 9.88255 2.17193 9.94366 2.13343C9.99292 2.10193 10.0123 2.07193 10.0142 2.05493C10.0194 1.99443 9.8835 1.83193 9.50692 1.78893C9.38396 1.77224 9.2721 1.70533 9.19535 1.60256C9.1186 1.49979 9.08308 1.36936 9.09641 1.23926C9.10974 1.10916 9.17086 0.989756 9.26665 0.906684C9.36244 0.823613 9.48526 0.783492 9.60876 0.794932C10.5737 0.904433 11.017 1.56593 10.9559 2.16243C10.8948 2.75843 10.3288 3.30493 9.36292 3.19493C9.08913 3.16343 8.9456 3.22343 8.8845 3.26193C8.83571 3.29343 8.81581 3.32393 8.81392 3.34043C8.80776 3.40143 8.94466 3.56393 9.32124 3.60693C10.2861 3.71643 10.7295 4.37793 10.6684 4.97443C10.6073 5.57043 10.0408 6.11743 9.07587 6.00693C8.80208 5.97593 8.65808 6.03543 8.5965 6.07393C8.54771 6.10543 8.52876 6.13593 8.52687 6.15293C8.52071 6.21343 8.6576 6.37593 9.03371 6.41893C9.12706 6.42917 9.21541 6.46851 9.28751 6.53193C9.3596 6.59536 9.41218 6.68 9.43855 6.77507C9.46491 6.87015 9.46387 6.97136 9.43556 7.06581C9.40724 7.16026 9.35294 7.24368 9.27955 7.30543Z" fill="#AA8DD8"/>
<path d="M14.9973 11.929C15.9319 11.6505 16.5766 12.0905 16.73 12.668C16.8835 13.245 16.551 13.9755 15.6174 14.2525C15.2526 14.3605 15.1432 14.5445 15.1579 14.6035C15.174 14.6625 15.3592 14.7595 15.723 14.6505C16.6571 14.3735 17.3018 14.8135 17.4552 15.3905C17.6101 15.968 17.2767 16.6975 16.3421 16.9755C15.9778 17.0835 15.8679 17.268 15.884 17.3265C15.8997 17.385 16.0844 17.4815 16.4487 17.374C16.5091 17.3543 16.5727 17.3475 16.6356 17.3542C16.6985 17.3608 16.7596 17.3807 16.8151 17.4126C16.8707 17.4445 16.9196 17.4879 16.959 17.5401C16.9985 17.5923 17.0276 17.6523 17.0447 17.7166C17.0617 17.7809 17.0665 17.8482 17.0585 17.9144C17.0506 17.9807 17.0302 18.0445 16.9984 18.1023C16.9667 18.1601 16.9244 18.2106 16.8739 18.2508C16.8234 18.291 16.7658 18.3202 16.7045 18.3365C15.7713 18.614 15.1257 18.175 14.9712 17.597C14.8178 17.02 15.1508 16.2905 16.0858 16.0125C16.4501 15.904 16.56 15.7205 16.5439 15.6615C16.5282 15.603 16.344 15.5055 15.9797 15.6135C15.0451 15.8915 14.4005 15.4525 14.2465 14.8745C14.0926 14.297 14.4256 13.5675 15.3606 13.2895C15.7239 13.182 15.8338 12.997 15.8182 12.939C15.8021 12.8795 15.6183 12.7825 15.2536 12.891C15.1929 12.9116 15.129 12.9191 15.0656 12.913C15.0021 12.9069 14.9405 12.8874 14.8844 12.8556C14.8283 12.8238 14.7788 12.7803 14.739 12.7279C14.6991 12.6755 14.6697 12.6151 14.6525 12.5504C14.6352 12.4857 14.6305 12.4179 14.6386 12.3513C14.6468 12.2846 14.6675 12.2203 14.6997 12.1623C14.7319 12.1043 14.7749 12.0537 14.826 12.0136C14.8771 11.9736 14.9354 11.9448 14.9973 11.929Z" fill="#77B255"/>
<path d="M11.369 10.5801C11.2709 10.5799 11.1753 10.5477 11.0953 10.4878C11.0153 10.4279 10.9549 10.3432 10.9223 10.2455C10.8898 10.1479 10.8868 10.0419 10.9137 9.94236C10.9406 9.84279 10.9961 9.75447 11.0725 9.68958C11.1758 9.60208 13.6389 7.56008 17.12 8.08558C17.1816 8.09483 17.2408 8.11681 17.2943 8.15024C17.3478 8.18368 17.3946 8.22792 17.4319 8.28044C17.4692 8.33296 17.4963 8.39273 17.5117 8.45633C17.5272 8.51992 17.5305 8.5861 17.5217 8.65108C17.5132 8.71622 17.4925 8.77894 17.4609 8.8356C17.4292 8.89225 17.3873 8.94173 17.3374 8.98116C17.2875 9.02059 17.2308 9.04919 17.1703 9.06531C17.1099 9.08143 17.0471 9.08475 16.9855 9.07508C13.9099 8.61408 11.6864 10.4521 11.6646 10.4706C11.5808 10.5416 11.4765 10.5803 11.369 10.5801Z" fill="#AA8DD8"/>
<path d="M3.1991 8.5C3.12521 8.50003 3.05234 8.48181 2.98632 8.44681C2.92029 8.4118 2.86294 8.36098 2.81884 8.2984C2.77475 8.23582 2.74513 8.16323 2.73236 8.08641C2.7196 8.00959 2.72403 7.93069 2.74531 7.856C3.28199 5.9695 3.76846 2.959 3.17068 2.1745C3.10341 2.0855 3.00299 1.998 2.77183 2.0165C2.32704 2.052 2.36968 3.042 2.37015 3.052C2.37617 3.11824 2.36959 3.18508 2.35082 3.24861C2.33205 3.31213 2.30145 3.37106 2.26082 3.42195C2.2202 3.47283 2.17035 3.51464 2.11422 3.54493C2.05809 3.57521 1.99679 3.59337 1.93392 3.59833C1.87106 3.60329 1.80789 3.59495 1.74811 3.5738C1.68834 3.55266 1.63316 3.51913 1.58582 3.47519C1.53848 3.43124 1.49992 3.37777 1.47242 3.31789C1.44491 3.25802 1.429 3.19295 1.42562 3.1265C1.37636 2.437 1.58004 1.109 2.70031 1.0195C3.20052 0.9795 3.61594 1.163 3.90962 1.548C5.03273 3.0235 3.89257 7.3015 3.65241 8.144C3.6231 8.24687 3.56319 8.33704 3.48154 8.40115C3.3999 8.46527 3.30086 8.49993 3.1991 8.5Z" fill="#77B255"/>
<path d="M13.2633 5.25C13.2633 5.34852 13.2449 5.44608 13.2091 5.53709C13.1734 5.6281 13.121 5.71079 13.055 5.78043C12.989 5.85008 12.9106 5.90531 12.8243 5.94299C12.7381 5.98066 12.6457 6.00003 12.5523 6C12.459 5.99997 12.3666 5.98053 12.2803 5.94279C12.1941 5.90506 12.1158 5.84977 12.0498 5.78008C11.9838 5.71039 11.9315 5.62766 11.8958 5.53663C11.8601 5.44559 11.8418 5.34802 11.8418 5.2495C11.8419 5.05052 11.9168 4.85972 12.0501 4.71907C12.1835 4.57841 12.3643 4.49943 12.5528 4.4995C12.7413 4.49957 12.9221 4.57867 13.0553 4.71942C13.1886 4.86017 13.2634 5.05102 13.2633 5.25Z" fill="#5C913B"/>
<path d="M2.36836 9.5C2.36832 9.63135 2.34378 9.76142 2.29613 9.88276C2.24848 10.0041 2.17866 10.1144 2.09064 10.2072C2.00263 10.3001 1.89814 10.3737 1.78316 10.424C1.66818 10.4742 1.54495 10.5 1.42051 10.5C1.29607 10.5 1.17286 10.4741 1.0579 10.4238C0.942941 10.3735 0.838495 10.2998 0.750524 10.2069C0.662553 10.114 0.592779 10.0037 0.545186 9.8823C0.497593 9.76093 0.473113 9.63085 0.473145 9.4995C0.473207 9.23422 0.573104 8.97983 0.750859 8.79229C0.928614 8.60475 1.16967 8.49943 1.42099 8.4995C1.67231 8.49957 1.91331 8.60501 2.09098 8.79264C2.26864 8.98027 2.36842 9.23472 2.36836 9.5Z" fill="#9266CC"/>
<path d="M16.5788 10.25C16.5787 10.3485 16.5603 10.4461 16.5246 10.5371C16.4888 10.6281 16.4364 10.7108 16.3704 10.7804C16.3044 10.8501 16.226 10.9053 16.1398 10.943C16.0535 10.9807 15.9611 11 15.8678 11C15.7744 11 15.682 10.9805 15.5958 10.9428C15.5096 10.9051 15.4312 10.8498 15.3652 10.7801C15.2993 10.7104 15.2469 10.6277 15.2112 10.5366C15.1755 10.4456 15.1572 10.348 15.1572 10.2495C15.1573 10.0505 15.2322 9.85972 15.3656 9.71907C15.4989 9.57841 15.6797 9.49943 15.8682 9.4995C16.0567 9.49957 16.2375 9.57867 16.3707 9.71942C16.504 9.86017 16.5788 10.051 16.5788 10.25Z" fill="#5C913B"/>
<path d="M12.3156 16.25C12.3155 16.3485 12.2971 16.4461 12.2614 16.5371C12.2256 16.6281 12.1732 16.7108 12.1072 16.7804C12.0412 16.8501 11.9628 16.9053 11.8766 16.943C11.7903 16.9807 11.6979 17 11.6046 17C11.5112 17 11.4188 16.9805 11.3326 16.9428C11.2464 16.9051 11.168 16.8498 11.1021 16.7801C11.0361 16.7104 10.9837 16.6277 10.9481 16.5366C10.9124 16.4456 10.894 16.348 10.894 16.2495C10.8941 16.0505 10.969 15.8597 11.1024 15.7191C11.2357 15.5784 11.4165 15.4994 11.605 15.4995C11.7935 15.4996 11.9743 15.5787 12.1076 15.7194C12.2408 15.8602 12.3156 16.051 12.3156 16.25Z" fill="#5C913B"/>
<path d="M14.6843 2.5C14.6842 2.63135 14.6597 2.76142 14.6121 2.88276C14.5644 3.0041 14.4946 3.11435 14.4066 3.20721C14.3185 3.30007 14.2141 3.37372 14.0991 3.42396C13.9841 3.47419 13.8609 3.50003 13.7364 3.5C13.612 3.49997 13.4888 3.47406 13.3738 3.42376C13.2589 3.37347 13.1544 3.29976 13.0664 3.20686C12.9785 3.11395 12.9087 3.00367 12.8611 2.8823C12.8135 2.76093 12.789 2.63085 12.7891 2.4995C12.7891 2.23422 12.889 1.97983 13.0668 1.79229C13.2445 1.60475 13.4856 1.49943 13.7369 1.4995C13.9882 1.49957 14.2292 1.60501 14.4069 1.79264C14.5846 1.98027 14.6843 2.23472 14.6843 2.5Z" fill="#FFCC4D"/>
<path d="M16.5788 4.75C16.5787 4.84852 16.5603 4.94608 16.5246 5.03709C16.4888 5.1281 16.4364 5.21079 16.3704 5.28043C16.3044 5.35008 16.226 5.40531 16.1398 5.44299C16.0535 5.48066 15.9611 5.50003 15.8678 5.5C15.7744 5.49997 15.682 5.48053 15.5958 5.44279C15.5096 5.40506 15.4312 5.34977 15.3652 5.28008C15.2993 5.21039 15.2469 5.12766 15.2112 5.03663C15.1755 4.94559 15.1572 4.84802 15.1572 4.7495C15.1573 4.55052 15.2322 4.35972 15.3656 4.21907C15.4989 4.07841 15.6797 3.99943 15.8682 3.9995C16.0567 3.99957 16.2375 4.07867 16.3707 4.21942C16.504 4.36017 16.5788 4.55102 16.5788 4.75Z" fill="#FFCC4D"/>
<path d="M15.1579 6.75C15.1578 6.84852 15.1394 6.94608 15.1037 7.03709C15.0679 7.1281 15.0155 7.21079 14.9495 7.28043C14.8835 7.35008 14.8051 7.40531 14.7189 7.44299C14.6326 7.48066 14.5402 7.50003 14.4469 7.5C14.3535 7.49997 14.2611 7.48053 14.1749 7.44279C14.0887 7.40506 14.0103 7.34977 13.9443 7.28008C13.8784 7.21039 13.826 7.12766 13.7903 7.03663C13.7547 6.94559 13.7363 6.84802 13.7363 6.7495C13.7364 6.55052 13.8113 6.35972 13.9447 6.21907C14.078 6.07841 14.2588 5.99943 14.4473 5.9995C14.6358 5.99957 14.8166 6.07867 14.9498 6.21942C15.0831 6.36017 15.1579 6.55102 15.1579 6.75Z" fill="#FFCC4D"/>
<path d="M4.73696 12.25C4.73692 12.3485 4.71851 12.4461 4.68276 12.5371C4.64701 12.6281 4.59463 12.7108 4.52861 12.7804C4.46259 12.8501 4.38422 12.9053 4.29797 12.943C4.21173 12.9807 4.11929 13 4.02596 13C3.93262 13 3.8402 12.9805 3.75398 12.9428C3.66775 12.9051 3.58942 12.8498 3.52344 12.7801C3.45746 12.7104 3.40513 12.6277 3.36944 12.5366C3.33375 12.4456 3.3154 12.348 3.31543 12.2495C3.31549 12.0505 3.39044 11.8597 3.52377 11.7191C3.65711 11.5784 3.83792 11.4994 4.02643 11.4995C4.21494 11.4996 4.3957 11.5787 4.52895 11.7194C4.6622 11.8602 4.73702 12.051 4.73696 12.25Z" fill="#FFCC4D"/>
</g>
</g>
<defs>
<clipPath id="clip0_182_6946">
<rect width="18" height="19" fill="white"/>
</clipPath>
</defs>
</svg>
