<svg width="30" height="30" viewBox="0 0 30 30" fill="none" xmlns="http://www.w3.org/2000/svg">
<path d="M27.0035 3.00467C22.9794 -1.01849 16.496 -0.984587 12.5062 3.00467C9.04 6.46907 8.59611 10.5698 8.08438 16.3274C7.89878 18.4156 6.97788 20.3669 5.4953 21.8492L3.26346 24.0805C2.50299 24.8408 1.20242 24.9305 0.440791 25.6896C0.0563331 26.074 -0.0831724 26.6436 0.048111 27.2928C0.168844 27.8894 0.511129 28.4929 1.00929 28.991C1.50864 29.4902 2.11114 29.8312 2.70778 29.9519C3.29269 30.0703 3.88933 29.9812 4.31132 29.5593C5.07174 28.7991 5.16089 27.497 5.92127 26.7367C6.77294 25.8852 7.52096 25.1372 8.15282 24.5053C9.63518 23.0228 11.5851 22.1031 13.6736 21.9213C19.3497 21.4274 23.499 20.9978 27 17.4966C30.9994 13.5028 30.9994 7.00112 27.0035 3.00467ZM10.5836 15.5769C10.7864 16.1348 11.0091 16.6141 11.2458 17.002C11.2646 17.0325 11.2587 17.07 11.233 17.0899L10.4159 17.7192C10.3714 17.7532 10.3069 17.7181 10.314 17.663L10.491 15.5898C10.4945 15.5394 10.566 15.5289 10.5836 15.5769ZM12.2516 19.5896L12.8928 18.7575C12.9115 18.7329 12.9478 18.7247 12.9807 18.7458C13.3733 18.9861 13.8586 19.2134 14.426 19.4209C14.474 19.4396 14.4635 19.5099 14.4119 19.5134L12.3078 19.6927C12.2492 19.6963 12.2164 19.633 12.2516 19.5896ZM19.5004 18.8104C19.5003 18.8103 19.5001 18.8103 19.5 18.8103C18.5213 19.0294 17.4922 18.9098 16.6026 18.4751C14.3673 17.3829 12.6722 15.7012 11.5658 13.4781C11.1005 12.5417 10.9739 11.4589 11.2107 10.43C11.7264 8.18808 12.8212 6.10321 14.2126 4.71206C17.2674 1.65794 22.2409 1.65674 25.2957 4.71206C28.3516 7.76738 28.3516 12.7374 25.2957 15.7927C23.8868 17.2013 21.7735 18.3017 19.5008 18.8105C19.5007 18.8105 19.5005 18.8105 19.5004 18.8104ZM9.49328 19.1372C9.63042 19.0001 9.85313 19.0001 9.99027 19.1372L10.8659 20.0126C11.003 20.1498 11.003 20.3724 10.8659 20.5095C10.7276 20.6478 10.5037 20.6455 10.3689 20.5095L9.49328 19.6353C9.35614 19.4981 9.35614 19.2755 9.49328 19.1372ZM3.81524 29.0634C3.60308 29.2755 3.25962 29.347 2.84935 29.2638C2.38634 29.17 1.91044 28.897 1.50837 28.495C1.10633 28.0931 0.833201 27.6161 0.738256 27.1531C0.655033 26.743 0.726535 26.3996 0.938698 26.1875C1.44669 25.6796 2.2424 26.2721 2.75039 26.78L3.22476 27.2543C3.73191 27.7613 4.32239 28.5564 3.81524 29.0634ZM6.25909 25.4083C5.95737 25.7094 5.46885 25.7091 5.16745 25.4078L4.596 24.8364C4.29428 24.5348 4.29428 24.0456 4.596 23.744C4.89763 23.4424 5.3866 23.4424 5.68823 23.744L6.25968 24.3153C6.56162 24.6172 6.56136 25.1068 6.25909 25.4083ZM9.34025 22.3255C9.09267 22.573 8.69131 22.573 8.44373 22.3255L7.67712 21.559C7.42946 21.3114 7.42946 20.9099 7.67712 20.6623C7.9247 20.4148 8.32606 20.4148 8.57365 20.6623L9.34025 21.4288C9.58791 21.6764 9.58791 22.0779 9.34025 22.3255ZM19.9573 4.24914C19.819 4.1132 19.8166 3.88937 19.9526 3.75106C20.0886 3.61278 20.3101 3.61043 20.4484 3.74638L20.4508 3.74872C20.5891 3.88466 20.5903 4.10732 20.4543 4.2456C20.3851 4.31474 20.2949 4.3499 20.2046 4.3499C20.1144 4.3499 20.0253 4.31594 19.9573 4.24914ZM21.6956 4.82574C21.5597 4.68745 21.5597 4.46362 21.698 4.32766C21.8363 4.19172 22.0578 4.19172 22.1938 4.33L22.1961 4.33234C22.3321 4.47063 22.3309 4.69329 22.1926 4.82922C22.1246 4.89719 22.0344 4.93118 21.9453 4.93118C21.855 4.93118 21.7648 4.89605 21.6956 4.82574ZM23.4387 5.40818C23.3015 5.27106 23.3003 5.04723 23.4375 4.9101C23.5746 4.77298 23.7962 4.77181 23.9333 4.90893L23.9357 4.91127C24.0728 5.04838 24.0728 5.27104 23.9357 5.40815C23.8665 5.47729 23.7774 5.51128 23.6872 5.51128C23.5981 5.51128 23.5078 5.47732 23.4387 5.40818ZM24.6003 6.56955C24.4631 6.43244 24.462 6.20861 24.5991 6.07147C24.7363 5.93434 24.9578 5.93319 25.0949 6.0703L25.0973 6.07264C25.2344 6.20976 25.2344 6.43242 25.0973 6.56952C25.0281 6.63867 24.939 6.67265 24.8488 6.67265C24.7585 6.67265 24.6694 6.63752 24.6003 6.56955ZM25.1805 7.81295C25.3177 7.67584 25.5392 7.67466 25.6763 7.81178L25.6787 7.81412C25.8158 7.95124 25.8158 8.17389 25.6787 8.311C25.6095 8.38014 25.5204 8.41413 25.4302 8.41413C25.3399 8.41413 25.2497 8.38014 25.1817 8.311C25.0434 8.17389 25.0422 7.95008 25.1805 7.81295ZM26.2589 10.0525C26.1898 10.1216 26.1007 10.1556 26.0104 10.1556C25.9202 10.1556 25.8299 10.1216 25.7619 10.0525C25.6248 9.91536 25.6236 9.69153 25.7608 9.5544C25.8979 9.41728 26.1194 9.41611 26.2566 9.55322L26.2589 9.55557C26.3961 9.69268 26.3961 9.91537 26.2589 10.0525ZM18.7945 5.4083C18.6574 5.27118 18.6562 5.04735 18.7934 4.91022C18.9305 4.7731 19.152 4.77193 19.2892 4.90905L19.2915 4.91139C19.4287 5.0485 19.4287 5.27116 19.2915 5.40827C19.2224 5.47741 19.1333 5.5114 19.043 5.5114C18.9528 5.5114 18.8625 5.47744 18.7945 5.4083ZM20.5352 5.49033C20.6724 5.35322 20.8939 5.35205 21.031 5.48916L21.0334 5.49151C21.1705 5.62862 21.1705 5.85128 21.0334 5.98838C20.9642 6.05753 20.8751 6.09151 20.7849 6.09151C20.6946 6.09151 20.6044 6.05753 20.5364 5.98838C20.3992 5.85127 20.3981 5.62747 20.5352 5.49033ZM22.2747 6.07277C22.4107 5.93449 22.6322 5.93214 22.7705 6.06809L22.7729 6.07043C22.9112 6.20637 22.9124 6.42903 22.7764 6.56731C22.7072 6.63645 22.617 6.67161 22.5267 6.67161C22.4376 6.67161 22.3486 6.63763 22.2794 6.56966C22.1411 6.43489 22.1388 6.21105 22.2747 6.07277ZM23.4387 7.72986C23.3016 7.59274 23.3004 7.36891 23.4375 7.23178C23.5747 7.09467 23.7962 7.09349 23.9333 7.23061L23.9357 7.23295C24.0728 7.37007 24.0728 7.59272 23.9357 7.72983C23.8665 7.79897 23.7774 7.83296 23.6872 7.83296C23.5981 7.83296 23.5079 7.799 23.4387 7.72986ZM24.0178 8.9756C24.1537 8.83731 24.3753 8.83497 24.5136 8.97091L24.5159 8.97325C24.6542 9.10919 24.6554 9.33186 24.5194 9.47013C24.4503 9.53927 24.36 9.57443 24.2698 9.57443C24.1807 9.57443 24.0916 9.54045 24.0224 9.47248C23.8829 9.33654 23.8806 9.11387 24.0178 8.9756ZM25.0962 11.2151C25.0282 11.2831 24.9379 11.3171 24.8488 11.3171C24.7586 11.3171 24.6671 11.2819 24.5992 11.2128C24.4632 11.0745 24.4632 10.8507 24.6015 10.7147C24.7398 10.5788 24.9614 10.5788 25.0973 10.717L25.0997 10.7194C25.2356 10.8565 25.2345 11.0792 25.0962 11.2151ZM25.6787 12.4591C25.6795 12.4595 25.6802 12.46 25.6808 12.4606C25.8159 12.599 25.8144 12.8209 25.6764 12.9566C25.6084 13.0245 25.5181 13.0585 25.4291 13.0585C25.3388 13.0585 25.2474 13.0234 25.1794 12.9542C25.0434 12.8159 25.0434 12.5921 25.1817 12.4561C25.3197 12.3205 25.5406 12.3202 25.6766 12.4575C25.6772 12.4582 25.6779 12.4587 25.6787 12.4591ZM17.0503 4.8259C16.9143 4.68761 16.9143 4.46378 17.0527 4.32782C17.191 4.19188 17.4125 4.19188 17.5485 4.33016L17.5508 4.33251C17.6868 4.47079 17.6856 4.69345 17.5473 4.82939C17.4793 4.89736 17.3891 4.93134 17.3 4.93134C17.2097 4.93134 17.1195 4.89621 17.0503 4.8259ZM17.6305 6.07281C17.7665 5.93452 17.988 5.93217 18.1264 6.06812L18.1287 6.07046C18.267 6.2064 18.2682 6.42906 18.1322 6.56734C18.0631 6.63648 17.9728 6.67164 17.8825 6.67164C17.7935 6.67164 17.7044 6.63766 17.6352 6.56969C17.4957 6.43492 17.4934 6.21108 17.6305 6.07281ZM19.3736 6.65174C19.5107 6.51462 19.7322 6.51345 19.8694 6.65057L19.8717 6.65291C20.0089 6.79002 20.0089 7.01268 19.8717 7.14979C19.8026 7.21893 19.7135 7.25292 19.6232 7.25292C19.533 7.25292 19.4427 7.21893 19.3747 7.14979C19.2376 7.01267 19.2364 6.78887 19.3736 6.65174ZM21.1154 7.23184C21.2526 7.09472 21.4741 7.09355 21.6112 7.23067L21.6136 7.23301C21.7507 7.37013 21.7507 7.59278 21.6136 7.72989C21.5444 7.79903 21.4553 7.83302 21.3651 7.83302C21.2748 7.83302 21.1846 7.79903 21.1166 7.72989C20.9794 7.59278 20.9783 7.36897 21.1154 7.23184ZM22.7752 8.39438C22.9123 8.5315 22.9123 8.75416 22.7752 8.89126C22.706 8.96041 22.617 8.99439 22.5267 8.99439C22.4364 8.99439 22.3462 8.96041 22.2782 8.89126C22.1411 8.75415 22.1399 8.53032 22.277 8.39318C22.4142 8.25607 22.6357 8.2549 22.7728 8.39201L22.7752 8.39438ZM22.8572 10.1347C22.9944 9.99758 23.2159 9.9964 23.3531 10.1335L23.3554 10.1359C23.4926 10.273 23.4926 10.4956 23.3554 10.6327C23.2863 10.7019 23.1972 10.7359 23.1069 10.7359C23.0167 10.7359 22.9264 10.7019 22.8584 10.6327C22.7213 10.4956 22.7201 10.2718 22.8572 10.1347ZM23.9368 12.3742C23.8677 12.4434 23.7786 12.4773 23.6883 12.4773C23.5981 12.4773 23.5078 12.4434 23.4398 12.3742C23.3027 12.2371 23.3015 12.0133 23.4387 11.8761C23.5758 11.739 23.7973 11.7378 23.9345 11.875L23.9368 11.8773C24.074 12.0144 24.074 12.2371 23.9368 12.3742ZM24.5147 13.6158C24.5155 13.617 24.5164 13.6181 24.5174 13.6191C24.6542 13.7552 24.6549 13.9767 24.5194 14.1145C24.4502 14.1836 24.36 14.2188 24.2697 14.2188C24.1806 14.2188 24.0916 14.1848 24.0224 14.1168C23.8841 13.9809 23.8817 13.7571 24.0177 13.6188C24.1532 13.481 24.3736 13.4781 24.512 13.6126C24.513 13.6136 24.5139 13.6147 24.5147 13.6158ZM15.8923 5.99072C15.754 5.85478 15.7516 5.63095 15.8876 5.49264C16.0236 5.35436 16.2451 5.35201 16.3834 5.48796L16.3858 5.4903C16.5241 5.62624 16.5253 5.8489 16.3893 5.98718C16.3201 6.05632 16.2299 6.09148 16.1396 6.09148C16.0505 6.09148 15.9615 6.05752 15.8923 5.99072ZM16.4702 7.23178C16.6073 7.09467 16.8289 7.09349 16.966 7.23061L16.9683 7.23295C17.1055 7.37007 17.1055 7.59272 16.9683 7.72983C16.8992 7.79897 16.8101 7.83296 16.7198 7.83296C16.6296 7.83296 16.5393 7.79897 16.4713 7.72983C16.3342 7.59272 16.333 7.36891 16.4702 7.23178ZM18.212 7.81305C18.3492 7.67594 18.5707 7.67476 18.7079 7.81188L18.7102 7.81422C18.8473 7.95134 18.8473 8.174 18.7102 8.3111C18.641 8.38025 18.552 8.41423 18.4617 8.41423C18.3714 8.41423 18.2812 8.38025 18.2132 8.3111C18.0761 8.17399 18.0749 7.95019 18.212 7.81305ZM20.4532 8.89123C20.3841 8.96038 20.295 8.99436 20.2048 8.99436C20.1145 8.99436 20.0242 8.96038 19.9562 8.89123C19.8191 8.75412 19.8179 8.53029 19.9551 8.39315C20.0922 8.25604 20.3138 8.25487 20.4509 8.39198L20.4532 8.39433C20.5904 8.53144 20.5904 8.75413 20.4532 8.89123ZM21.6137 10.0526C21.5445 10.1217 21.4555 10.1557 21.3652 10.1557C21.2749 10.1557 21.1847 10.1217 21.1167 10.0526C20.9796 9.91549 20.9784 9.69166 21.1155 9.55453C21.2527 9.41741 21.4742 9.41624 21.6113 9.55336L21.6137 9.5557C21.7508 9.69281 21.7508 9.9155 21.6137 10.0526ZM21.6969 11.7941C21.5598 11.657 21.5586 11.4331 21.6958 11.296C21.8329 11.1589 22.0544 11.1577 22.1916 11.2948L22.1939 11.2972C22.3311 11.4343 22.3311 11.6569 22.1939 11.7941C22.1248 11.8632 22.0357 11.8972 21.9454 11.8972C21.8563 11.8972 21.7661 11.8621 21.6969 11.7941ZM22.7765 13.5344C22.7074 13.6035 22.6171 13.6387 22.5268 13.6387C22.4378 13.6387 22.3487 13.6047 22.2795 13.5367C22.1412 13.4008 22.1388 13.177 22.2748 13.0387C22.4108 12.9004 22.6323 12.898 22.7706 13.034L22.773 13.0363C22.9125 13.1734 22.9137 13.3961 22.7765 13.5344ZM23.3567 14.7807C23.3575 14.7811 23.3582 14.7816 23.3588 14.7822C23.4939 14.9206 23.4924 15.1426 23.3544 15.2782C23.2864 15.3461 23.1961 15.3801 23.1071 15.3801C23.0168 15.3801 22.9254 15.345 22.8574 15.2758C22.7214 15.1375 22.7214 14.9137 22.8597 14.7778C22.9977 14.6421 23.2186 14.6418 23.3546 14.7791C23.3552 14.7798 23.3559 14.7803 23.3567 14.7807ZM14.7295 7.14961C14.5924 7.01249 14.5912 6.78866 14.7283 6.65153C14.8655 6.51439 15.087 6.51324 15.2242 6.65035L15.2265 6.6527C15.3636 6.78981 15.3636 7.01247 15.2265 7.14958C15.1573 7.21872 15.0683 7.25271 14.978 7.25271C14.8889 7.25271 14.7987 7.21875 14.7295 7.14961ZM15.3109 8.39183C15.4492 8.25589 15.6708 8.25589 15.8067 8.39418L15.8091 8.39652C15.945 8.53481 15.9439 8.75747 15.8056 8.8934C15.7376 8.96137 15.6473 8.99536 15.5582 8.99536C15.468 8.99536 15.3765 8.9602 15.3086 8.89105C15.1726 8.7516 15.1726 8.5278 15.3109 8.39183ZM17.3013 9.5743C17.211 9.5743 17.1207 9.54031 17.0528 9.47117C16.9156 9.33406 16.9144 9.11023 17.0516 8.97309C17.1887 8.83598 17.4103 8.8348 17.5474 8.97192L17.5497 8.97426C17.6869 9.11138 17.6869 9.33404 17.5497 9.47114C17.4806 9.54029 17.3903 9.5743 17.3013 9.5743ZM19.2916 10.0525C19.2224 10.1216 19.1334 10.1556 19.0431 10.1556C18.9528 10.1556 18.8626 10.1216 18.7946 10.0525C18.6575 9.91534 18.6563 9.69151 18.7934 9.55438C18.9306 9.41726 19.1521 9.41609 19.2893 9.55321L19.2916 9.55555C19.4287 9.69266 19.4287 9.91535 19.2916 10.0525ZM20.4532 10.7158C20.5904 10.8529 20.5904 11.0755 20.4532 11.2126C20.3841 11.2818 20.295 11.3158 20.2047 11.3158C20.1145 11.3158 20.0242 11.2818 19.9562 11.2126C19.8191 11.0755 19.8179 10.8517 19.9551 10.7146C20.0922 10.5774 20.3137 10.5763 20.4509 10.7134L20.4532 10.7158ZM21.0323 12.9565C20.9643 13.0244 20.874 13.0584 20.785 13.0584C20.6947 13.0584 20.6033 13.0233 20.5353 12.9541C20.3993 12.8158 20.3993 12.592 20.5376 12.4561C20.6759 12.3201 20.8975 12.3201 21.0334 12.4584L21.0358 12.4607C21.1718 12.5979 21.1694 12.8205 21.0323 12.9565ZM21.6137 14.6968C21.5445 14.7659 21.4554 14.7999 21.3652 14.7999C21.2749 14.7999 21.1847 14.7659 21.1167 14.6968C20.9795 14.5597 20.9784 14.3358 21.1155 14.1987C21.2527 14.0616 21.4742 14.0604 21.6113 14.1975L21.6137 14.1999C21.7508 14.337 21.7508 14.5597 21.6137 14.6968ZM22.1951 15.9414C22.3322 16.0785 22.3322 16.3011 22.1951 16.4382C22.0579 16.5753 21.8352 16.5753 21.6981 16.4382C21.561 16.3011 21.5598 16.0773 21.6969 15.9402C21.8341 15.803 22.0556 15.8019 22.1927 15.939L22.1951 15.9414ZM13.5703 8.31206C13.432 8.17612 13.4296 7.95229 13.5656 7.81398C13.7016 7.67568 13.9231 7.67335 14.0614 7.80929L14.0638 7.81164C14.2021 7.94758 14.2032 8.17024 14.0673 8.30852C13.9981 8.37766 13.9079 8.41282 13.8176 8.41282C13.7273 8.41399 13.6383 8.38003 13.5703 8.31206ZM14.1482 9.55429C14.2853 9.41717 14.5069 9.416 14.644 9.55312L14.6463 9.55546C14.7835 9.69257 14.7835 9.91523 14.6463 10.0523C14.5772 10.1215 14.4881 10.1555 14.3978 10.1555C14.3076 10.1555 14.2173 10.1215 14.1493 10.0523C14.0122 9.91522 14.011 9.69142 14.1482 9.55429ZM16.3894 10.6313C16.3202 10.7004 16.23 10.7356 16.1397 10.7356C16.0506 10.7356 15.9615 10.7016 15.8924 10.6336C15.7541 10.4977 15.7517 10.2738 15.8877 10.1355C16.0237 9.99725 16.2452 9.99491 16.3835 10.1308L16.3859 10.1332C16.5253 10.2703 16.5265 10.493 16.3894 10.6313ZM17.6331 11.2137C17.4959 11.0766 17.4947 10.8528 17.6319 10.7156C17.769 10.5785 17.9906 10.5773 18.1277 10.7145L18.13 10.7168C18.2672 10.8539 18.2672 11.0766 18.13 11.2137C18.0609 11.2828 17.9718 11.3168 17.8815 11.3168C17.7913 11.3156 17.7022 11.2817 17.6331 11.2137ZM19.2917 11.877C19.4288 12.0141 19.4288 12.2368 19.2917 12.3739C19.2225 12.443 19.1334 12.477 19.0432 12.477C18.9529 12.477 18.8627 12.443 18.7947 12.3739C18.6575 12.2368 18.6563 12.0129 18.7935 11.8758C18.9306 11.7387 19.1522 11.7375 19.2893 11.8746L19.2917 11.877ZM19.8719 14.1154C19.8027 14.1845 19.7136 14.2185 19.6234 14.2185C19.5331 14.2185 19.4429 14.1845 19.3749 14.1154C19.2378 13.9782 19.2366 13.7544 19.3737 13.6173C19.5109 13.4801 19.7324 13.479 19.8695 13.6161L19.8719 13.6185C20.009 13.7556 20.009 13.9783 19.8719 14.1154ZM20.4498 15.357C20.4506 15.3582 20.4515 15.3593 20.4525 15.3603C20.5893 15.4963 20.5899 15.7179 20.4545 15.8556C20.3853 15.9248 20.295 15.9599 20.2048 15.9599C20.1157 15.9599 20.0266 15.926 19.9575 15.858C19.8191 15.722 19.8168 15.4982 19.9528 15.3599C20.0882 15.2221 20.3087 15.2193 20.4471 15.3537C20.4481 15.3547 20.449 15.3558 20.4498 15.357ZM13.4835 11.215C13.4155 11.283 13.3252 11.317 13.2361 11.317C13.1459 11.317 13.0545 11.2818 12.9865 11.2127C12.8505 11.0744 12.8505 10.8505 12.9888 10.7146C13.1271 10.5786 13.3487 10.5786 13.4846 10.7169L13.487 10.7193C13.623 10.8564 13.6218 11.0791 13.4835 11.215ZM15.2265 11.7939C15.1573 11.8631 15.0683 11.8971 14.978 11.8971C14.8877 11.8971 14.7975 11.8631 14.7295 11.7939C14.5924 11.6568 14.5912 11.433 14.7283 11.2959C14.8655 11.1587 15.087 11.1576 15.2241 11.2947L15.2265 11.297C15.3648 11.4341 15.3648 11.6568 15.2265 11.7939ZM16.9684 11.8771C17.1055 12.0143 17.1055 12.2369 16.9684 12.374C16.8992 12.4432 16.8101 12.4771 16.7199 12.4771C16.6296 12.4771 16.5393 12.4432 16.4714 12.374C16.3342 12.2369 16.333 12.0131 16.4702 11.8759C16.6073 11.7388 16.8289 11.7377 16.966 11.8748L16.9684 11.8771ZM18.1311 13.5342C18.062 13.6034 17.9717 13.6385 17.8815 13.6385C17.7924 13.6385 17.7033 13.6045 17.6341 13.5366C17.4958 13.4006 17.4935 13.1768 17.6295 13.0385C17.7654 12.9002 17.987 12.8979 18.1253 13.0338L18.1276 13.0361C18.2671 13.1733 18.2683 13.3959 18.1311 13.5342ZM18.709 15.278C18.6411 15.346 18.5508 15.38 18.4617 15.38C18.3715 15.38 18.28 15.3448 18.212 15.2757C18.0761 15.1374 18.0761 14.9136 18.2144 14.7776C18.3527 14.6417 18.5742 14.6417 18.7102 14.78L18.7125 14.7823C18.8485 14.9194 18.8474 15.1421 18.709 15.278ZM19.2928 16.5226C19.4287 16.6609 19.4276 16.8836 19.2893 17.0195C19.1509 17.1554 18.9282 17.1543 18.7923 17.016C18.6563 16.8777 18.6563 16.6539 18.7946 16.5179C18.9329 16.3819 19.1545 16.3819 19.2904 16.5202L19.2928 16.5226ZM14.066 12.9552C13.9969 13.0243 13.9078 13.0583 13.8175 13.0583C13.7273 13.0583 13.637 13.0243 13.569 12.9552C13.4319 12.8181 13.4307 12.5942 13.5679 12.4571C13.705 12.32 13.9266 12.3188 14.0637 12.4559L14.066 12.4583C14.2032 12.5954 14.2032 12.8169 14.066 12.9552ZM15.3109 13.5353C15.1737 13.3982 15.1726 13.1743 15.3097 13.0372C15.4469 12.9001 15.6684 12.8989 15.8055 13.036L15.8079 13.0384C15.945 13.1755 15.945 13.3981 15.8079 13.5352C15.7387 13.6044 15.6496 13.6384 15.5594 13.6384C15.4691 13.6384 15.3789 13.6044 15.3109 13.5353ZM16.9683 14.6966C16.8992 14.7658 16.8101 14.7998 16.7198 14.7998C16.6296 14.7998 16.5393 14.7658 16.4713 14.6966C16.3342 14.5595 16.333 14.3357 16.4702 14.1986C16.6073 14.0615 16.8288 14.0603 16.966 14.1974L16.9683 14.1997C17.1066 14.3369 17.1066 14.5595 16.9683 14.6966ZM17.5497 15.9412C17.6869 16.0783 17.6869 16.301 17.5497 16.4381C17.4126 16.5752 17.1899 16.5752 17.0527 16.4381C16.9156 16.301 16.9144 16.0771 17.0516 15.94C17.1887 15.8029 17.4102 15.8017 17.5474 15.9388L17.5497 15.9412ZM14.7307 14.1154C14.8678 14.2525 14.8678 14.4751 14.7307 14.6123C14.6615 14.6814 14.5724 14.7154 14.4822 14.7154C14.3919 14.7154 14.3016 14.6814 14.2337 14.6123C14.0965 14.4751 14.0953 14.2513 14.2325 14.1142C14.3696 13.9771 14.5912 13.9759 14.7283 14.113L14.7307 14.1154ZM15.8911 15.2767C16.0283 15.4139 16.0283 15.6365 15.8911 15.7736C15.754 15.9107 15.5313 15.9107 15.3941 15.7736C15.257 15.6365 15.2558 15.4127 15.393 15.2755C15.5301 15.1384 15.7516 15.1373 15.8888 15.2744L15.8911 15.2767Z" fill="white"/>
</svg>
