<svg width="25" height="25" viewBox="0 0 25 25" fill="none" xmlns="http://www.w3.org/2000/svg">
<g clip-path="url(#clip0_105_2390)">
<path d="M12.1976 5.26955C13.8143 5.25797 15.3027 5.80085 16.4944 6.71287L20.1066 3.21694C17.9786 1.368 15.2023 0.247902 12.1618 0.26968C7.55429 0.302681 3.57729 2.93115 1.59376 6.75539L5.66096 9.91927C6.62145 7.22891 9.17514 5.2912 12.1976 5.26955Z" fill="#F44336"/>
<path d="M24.1539 13.6861C24.2129 13.194 24.2507 12.6922 24.2471 12.1835C24.2409 11.3257 24.1413 10.4911 23.9644 9.68548L12.2295 9.76953L12.2653 14.7694L18.7513 14.7229C18.2364 16.0904 17.3104 17.2511 16.127 18.0613L20.2093 21.237C22.3476 19.3327 23.8012 16.6772 24.1539 13.6861Z" fill="#2196F3"/>
<path d="M5.24792 12.3198C5.24188 11.4764 5.39297 10.6704 5.66097 9.91958L1.59378 6.7557C0.724291 8.43214 0.23358 10.3358 0.248047 12.3556C0.262352 14.3528 0.770854 16.2283 1.64586 17.8787L5.67241 14.6528C5.40784 13.9231 5.25379 13.1402 5.24792 12.3198Z" fill="#FFC107"/>
<path d="M12.298 19.2694C9.25251 19.2912 6.65458 17.3612 5.6725 14.6526L1.64595 17.8786C3.67444 21.7047 7.70371 24.3024 12.3338 24.2692C15.3615 24.2475 18.1143 23.103 20.2097 21.237L16.1274 18.0614C15.0359 18.8086 13.7263 19.2591 12.298 19.2694Z" fill="#00B060"/>
<path opacity="0.1" d="M12.3318 24.0192C8.80024 24.0445 5.61429 22.6101 3.35254 20.3047C5.56796 22.7554 8.77017 24.2947 12.3336 24.2691C15.8641 24.2439 19.0177 22.6899 21.1932 20.2464C18.971 22.5462 15.8298 23.9941 12.3318 24.0192Z" fill="black"/>
<path opacity="0.1" d="M12.2637 14.5195L12.2655 14.7695L18.7515 14.7231L18.851 14.4723L12.2637 14.5195Z" fill="black"/>
<path d="M24.2426 12.331C24.2431 12.2818 24.2475 12.2334 24.2471 12.184C24.247 12.17 24.2447 12.1565 24.2446 12.1426C24.2444 12.2055 24.2416 12.2678 24.2426 12.331Z" fill="#E6E6E6"/>
<path opacity="0.2" d="M12.2295 9.76953L12.2313 10.0195L24.0166 9.93511C24.0002 9.85271 23.9824 9.76726 23.9644 9.68548L12.2295 9.76953Z" fill="white"/>
<path d="M23.9648 9.68522L12.2298 9.76928L12.2657 14.7691L18.7517 14.7227C17.7618 17.3514 15.275 19.2477 12.2979 19.269C8.43202 19.2967 5.27562 16.1852 5.24793 12.3193C5.22024 8.45342 8.33175 5.29708 12.1976 5.26939C13.5994 5.25935 14.8945 5.68075 15.9942 6.38291C16.1625 6.4906 16.3361 6.59159 16.4944 6.71271L20.1066 3.21678L20.0241 3.15426C17.9066 1.34547 15.1653 0.248007 12.1618 0.26952C5.53453 0.316988 0.20059 5.72789 0.248058 12.3552C0.295526 18.9824 5.70643 24.3164 12.3337 24.2689C18.4512 24.2251 23.4561 19.6079 24.1543 13.6858C24.2132 13.1937 24.2511 12.6919 24.2474 12.1833C24.2413 11.3254 24.1416 10.4908 23.9648 9.68522Z" fill="url(#paint0_linear_105_2390)"/>
<path opacity="0.1" d="M15.9925 6.13347C14.8928 5.43131 13.5977 5.00991 12.1959 5.01995C8.33005 5.04764 5.21855 8.20398 5.24624 12.0699C5.24654 12.1121 5.24734 12.145 5.24837 12.1871C5.28854 8.37902 8.37402 5.29733 12.1977 5.26994C13.5995 5.2599 14.8946 5.6813 15.9943 6.38346C16.1626 6.49115 16.3362 6.59214 16.4945 6.71326L20.1067 3.21733L16.4927 6.46327C16.3344 6.34215 16.1608 6.24115 15.9925 6.13347Z" fill="black"/>
<path opacity="0.2" d="M12.1636 0.519513C15.1386 0.498205 17.8542 1.57717 19.9634 3.35532L20.1066 3.21678L19.9959 3.12175C17.8784 1.31296 15.1653 0.248007 12.1618 0.26952C5.53453 0.316988 0.20059 5.72789 0.248058 12.3552C0.24836 12.3973 0.254511 12.438 0.25524 12.4801C0.275936 5.91064 5.5785 0.56668 12.1636 0.519513Z" fill="white"/>
</g>
<defs>
<linearGradient id="paint0_linear_105_2390" x1="0.248058" y1="12.3552" x2="24.2474" y2="12.1833" gradientUnits="userSpaceOnUse">
<stop stop-color="white" stop-opacity="0.2"/>
<stop offset="1" stop-color="white" stop-opacity="0"/>
</linearGradient>
<clipPath id="clip0_105_2390">
<rect width="24" height="24" fill="white" transform="translate(0.162109 0.355469) rotate(-0.410379)"/>
</clipPath>
</defs>
</svg>
