<svg width="18" height="18" viewBox="0 0 18 18" fill="none" xmlns="http://www.w3.org/2000/svg">
<path d="M9 18C7.75 18 6.57917 17.7625 5.4875 17.2875C4.39583 16.8125 3.44583 16.1708 2.6375 15.3625C1.82917 14.5542 1.1875 13.6042 0.7125 12.5125C0.2375 11.4208 0 10.25 0 9C0 7.75 0.2375 6.57917 0.7125 5.4875C1.1875 4.39583 1.82917 3.44583 2.6375 2.6375C3.44583 1.82917 4.39583 1.1875 5.4875 0.7125C6.57917 0.2375 7.75 0 9 0V2C7.05 2 5.39583 2.67917 4.0375 4.0375C2.67917 5.39583 2 7.05 2 9C2 10.95 2.67917 12.6042 4.0375 13.9625C5.39583 15.3208 7.05 16 9 16V18ZM13 14L11.6 12.575L14.175 10H6V8H14.175L11.6 5.4L13 4L18 9L13 14Z" fill="#CE1313"/>
</svg>
