<svg width="22" height="18" viewBox="0 0 22 18" fill="none" xmlns="http://www.w3.org/2000/svg">
<path fill-rule="evenodd" clip-rule="evenodd" d="M21.5 2.75C21.5 2.021 21.21 1.321 20.695 0.805C20.179 0.29 19.479 0 18.75 0C14.918 0 6.582 0 2.75 0C2.021 0 1.321 0.29 0.805 0.805C0.29 1.321 0 2.021 0 2.75V14.75C0 15.479 0.29 16.179 0.805 16.695C1.321 17.21 2.021 17.5 2.75 17.5C6.582 17.5 14.918 17.5 18.75 17.5C19.479 17.5 20.179 17.21 20.695 16.695C21.21 16.179 21.5 15.479 21.5 14.75V2.75ZM20 2.75V14.75C20 15.082 19.868 15.399 19.634 15.634C19.399 15.868 19.082 16 18.75 16H2.75C2.418 16 2.101 15.868 1.866 15.634C1.632 15.399 1.5 15.082 1.5 14.75V2.75C1.5 2.418 1.632 2.101 1.866 1.866C2.101 1.632 2.418 1.5 2.75 1.5H18.75C19.082 1.5 19.399 1.632 19.634 1.866C19.868 2.101 20 2.418 20 2.75Z" fill="#1F41BB"/>
<path fill-rule="evenodd" clip-rule="evenodd" d="M10 0.75V16.75C10 17.164 10.336 17.5 10.75 17.5C11.164 17.5 11.5 17.164 11.5 16.75V0.75C11.5 0.336 11.164 0 10.75 0C10.336 0 10 0.336 10 0.75Z" fill="#1F41BB"/>
<path fill-rule="evenodd" clip-rule="evenodd" d="M20.75 3H0.75C0.336 3 0 3.336 0 3.75C0 4.164 0.336 4.5 0.75 4.5H20.75C21.164 4.5 21.5 4.164 21.5 3.75C21.5 3.336 21.164 3 20.75 3Z" fill="#1F41BB"/>
<path fill-rule="evenodd" clip-rule="evenodd" d="M20.75 13H0.75C0.336 13 0 13.336 0 13.75C0 14.164 0.336 14.5 0.75 14.5H20.75C21.164 14.5 21.5 14.164 21.5 13.75C21.5 13.336 21.164 13 20.75 13Z" fill="#1F41BB"/>
<path fill-rule="evenodd" clip-rule="evenodd" d="M5.75 9.5H15.75C16.164 9.5 16.5 9.164 16.5 8.75C16.5 8.336 16.164 8 15.75 8H5.75C5.336 8 5 8.336 5 8.75C5 9.164 5.336 9.5 5.75 9.5Z" fill="#1F41BB"/>
<path fill-rule="evenodd" clip-rule="evenodd" d="M15 3.75V13.75C15 14.164 15.336 14.5 15.75 14.5C16.164 14.5 16.5 14.164 16.5 13.75V3.75C16.5 3.336 16.164 3 15.75 3C15.336 3 15 3.336 15 3.75Z" fill="#1F41BB"/>
<path fill-rule="evenodd" clip-rule="evenodd" d="M5 3.75V13.75C5 14.164 5.336 14.5 5.75 14.5C6.164 14.5 6.5 14.164 6.5 13.75V3.75C6.5 3.336 6.164 3 5.75 3C5.336 3 5 3.336 5 3.75Z" fill="#1F41BB"/>
</svg>
