<svg width="6" height="9" viewBox="0 0 6 9" fill="none" xmlns="http://www.w3.org/2000/svg">
<path d="M5.99623 0.160184C5.99495 0.153944 5.99284 0.148169 5.99111 0.142194C5.98926 0.135755 5.98785 0.129316 5.98536 0.123076C5.98248 0.115906 5.97864 0.109268 5.97487 0.10243C5.97251 0.0979827 5.97065 0.0931366 5.96778 0.0888217C5.95377 0.066915 5.93555 0.0481284 5.91445 0.0334575C5.91023 0.0304702 5.90556 0.0285451 5.90122 0.0259561C5.89469 0.0221722 5.88837 0.0181892 5.88146 0.0152019C5.87545 0.012613 5.86912 0.0111525 5.86285 0.00922736C5.8571 0.00743499 5.8516 0.00511156 5.84572 0.00398303C5.83338 0.00139406 5.82072 0 5.80812 0H4.42005C4.31404 0 4.22823 0.0891536 4.22823 0.199152C4.22823 0.30915 4.31404 0.398303 4.42005 0.398303H5.34515L4.29351 1.49005C3.98444 1.2686 3.61015 1.13848 3.20696 1.13848C2.2754 1.13848 1.49715 1.83173 1.32478 2.74736C0.556702 3.00746 0 3.75773 0 4.64083C0 5.67171 0.75836 6.52215 1.72631 6.62239V7.71667H1.03898C0.933036 7.71667 0.847169 7.80582 0.847169 7.91582C0.847169 8.02582 0.933036 8.11497 1.03898 8.11497H1.72631V8.80085C1.72631 8.91085 1.81217 9 1.91812 9C2.02406 9 2.10993 8.91085 2.10993 8.80085V8.11504H2.82922C2.93517 8.11504 3.02104 8.02588 3.02104 7.91588C3.02104 7.80589 2.93523 7.71673 2.82922 7.71673H2.10993V6.62246C2.95499 6.53497 3.63988 5.87557 3.80037 5.02354C4.56838 4.76344 5.12508 4.01317 5.12508 3.13007C5.12508 2.59408 4.91978 2.10722 4.58686 1.74882L5.61638 0.679904V1.64055C5.61638 1.75054 5.70231 1.8397 5.80819 1.8397C5.9142 1.8397 6 1.75054 6 1.64055V0.199152C6 0.198953 6 0.19882 6 0.198687C6 0.185809 5.99859 0.172864 5.99623 0.160184ZM1.91818 6.23411C1.0721 6.23411 0.383687 5.51936 0.383687 4.6409C0.383687 3.99465 0.756505 3.43736 1.29038 3.18769C1.31998 4.25919 2.16805 5.12152 3.20703 5.12152C3.26675 5.12152 3.32563 5.11827 3.38401 5.11269C3.18977 5.76159 2.60608 6.23411 1.91818 6.23411ZM3.45114 4.7029C3.3716 4.71611 3.29015 4.72328 3.20703 4.72328C2.36095 4.72328 1.67253 4.00853 1.67253 3.13007C1.67253 3.10929 1.6733 3.08871 1.67401 3.06807C1.75354 3.05486 1.83506 3.04769 1.91812 3.04769C2.7642 3.04769 3.45261 3.76244 3.45261 4.6409C3.45261 4.66168 3.45184 4.68226 3.45114 4.7029ZM4.74146 3.13C4.74146 3.77625 4.3687 4.33354 3.83483 4.58321C3.80523 3.51171 2.95716 2.64938 1.91812 2.64938C1.8584 2.64938 1.79951 2.65264 1.7412 2.65821C1.93532 2.00937 2.519 1.53679 3.2069 1.53679C4.05317 1.53679 4.74146 2.25154 4.74146 3.13Z" fill="#494949"/>
</svg>
