<?xml version="1.0" encoding="UTF-8"?>
<svg xmlns="http://www.w3.org/2000/svg" xmlns:xlink="http://www.w3.org/1999/xlink" width="24px" height="30px" viewBox="0 0 24 29" version="1.1">
<g id="surface1">
<path style=" stroke:none;fill-rule:nonzero;fill:rgb(0%,10.980392%,39.215687%);fill-opacity:1;" d="M 9.386719 5.800781 C 8.964844 5.800781 8.609375 6.097656 8.542969 6.503906 L 7.148438 15.207031 L 5.863281 23.199219 L 5.863281 23.207031 L 5.863281 23.199219 L 7.148438 15.207031 C 7.214844 14.800781 7.570312 14.5 7.988281 14.5 L 12.082031 14.5 C 16.203125 14.5 19.699219 11.550781 20.339844 7.550781 C 20.386719 7.246094 20.414062 6.945312 20.417969 6.648438 C 19.371094 6.109375 18.140625 5.800781 16.792969 5.800781 Z M 9.386719 5.800781 "/>
<path style=" stroke:none;fill-rule:nonzero;fill:rgb(0%,43.921569%,87.843138%);fill-opacity:1;" d="M 20.417969 6.648438 C 20.414062 6.945312 20.386719 7.246094 20.339844 7.550781 C 19.699219 11.550781 16.203125 14.5 12.082031 14.5 L 7.988281 14.5 C 7.570312 14.5 7.210938 14.800781 7.148438 15.207031 L 5.863281 23.199219 L 5.058594 28.214844 C 5.027344 28.410156 5.082031 28.613281 5.214844 28.761719 C 5.347656 28.914062 5.539062 29 5.742188 29 L 10.183594 29 C 10.601562 29 10.960938 28.699219 11.027344 28.292969 L 12.195312 21.003906 C 12.261719 20.597656 12.617188 20.300781 13.035156 20.300781 L 15.652344 20.300781 C 19.773438 20.300781 23.269531 17.347656 23.910156 13.351562 C 24.363281 10.511719 22.90625 7.929688 20.417969 6.648438 Z M 20.417969 6.648438 "/>
<path style=" stroke:none;fill-rule:nonzero;fill:rgb(0%,18.82353%,52.941179%);fill-opacity:1;" d="M 4.335938 0 C 3.917969 0 3.5625 0.300781 3.496094 0.707031 L 0.0078125 22.414062 C -0.0234375 22.609375 0.0351562 22.8125 0.164062 22.960938 C 0.296875 23.113281 0.488281 23.199219 0.691406 23.199219 L 5.863281 23.199219 L 7.148438 15.207031 L 8.542969 6.503906 C 8.609375 6.097656 8.964844 5.800781 9.386719 5.800781 L 16.792969 5.800781 C 18.140625 5.800781 19.371094 6.109375 20.417969 6.648438 C 20.488281 3.007812 17.429688 0 13.222656 0 Z M 4.335938 0 "/>
</g>
</svg>
