<svg width="18" height="18" viewBox="0 0 18 18" fill="none" xmlns="http://www.w3.org/2000/svg">
<path d="M15.4286 7.71429V6.95571C15.8537 6.80144 16.2112 6.50265 16.4384 6.11156C16.6655 5.72047 16.7481 5.26197 16.6715 4.81622C16.5949 4.37046 16.3641 3.9658 16.0194 3.67297C15.6746 3.38015 15.238 3.21779 14.7857 3.21429C14.6586 3.21429 14.5343 3.17658 14.4286 3.10594C14.3228 3.03531 14.2404 2.93491 14.1918 2.81744C14.1431 2.69997 14.1304 2.57072 14.1552 2.44601C14.18 2.32131 14.2412 2.20677 14.3311 2.11686C14.4211 2.02695 14.5356 1.96573 14.6603 1.94092C14.785 1.91612 14.9143 1.92885 15.0317 1.97751C15.1492 2.02616 15.2496 2.10856 15.3202 2.21428C15.3909 2.31999 15.4286 2.44428 15.4286 2.57143H16.7143C16.7132 2.17354 16.589 1.78573 16.3588 1.46117C16.1286 1.13662 15.8037 0.891201 15.4286 0.758571V0H14.1429V0.758571C13.7177 0.912844 13.3603 1.21164 13.1331 1.60273C12.9059 1.99381 12.8234 2.45231 12.9 2.89807C12.9765 3.34383 13.2074 3.74849 13.5521 4.04131C13.8968 4.33413 14.3334 4.49649 14.7857 4.5C14.9129 4.5 15.0371 4.5377 15.1429 4.60834C15.2486 4.67898 15.331 4.77938 15.3796 4.89685C15.4283 5.01431 15.441 5.14357 15.4162 5.26827C15.3914 5.39297 15.3302 5.50752 15.2403 5.59743C15.1504 5.68733 15.0358 5.74856 14.9111 5.77336C14.7864 5.79817 14.6572 5.78544 14.5397 5.73678C14.4222 5.68812 14.3218 5.60573 14.2512 5.50001C14.1806 5.39429 14.1429 5.27 14.1429 5.14286H12.8571C12.8583 5.54075 12.9824 5.92856 13.2126 6.25311C13.4428 6.57767 13.7677 6.82308 14.1429 6.95571V7.71429H12.2143C12.0438 7.71429 11.8803 7.64656 11.7597 7.526C11.6392 7.40544 11.5714 7.24192 11.5714 7.07143V0H10.2857V7.07143C10.2857 7.58292 10.4889 8.07346 10.8506 8.43513C11.2123 8.79681 11.7028 9 12.2143 9H16.7143V11.5714H1.28571V1.92857C1.28571 1.75808 1.35344 1.59456 1.474 1.474C1.59456 1.35344 1.75808 1.28571 1.92857 1.28571H3.21429V4.5C3.20911 4.60415 3.22934 4.70799 3.27324 4.80258C3.31714 4.89716 3.38339 4.97965 3.46628 5.04292C3.54917 5.10619 3.6462 5.14835 3.74901 5.16576C3.85183 5.18317 3.95733 5.17531 4.05643 5.14286L5.78571 4.53214L7.48929 5.11071C7.56227 5.13257 7.6381 5.14341 7.71429 5.14286C7.8487 5.14475 7.9799 5.10177 8.08714 5.02071C8.17023 4.96156 8.23804 4.88349 8.28499 4.79295C8.33194 4.7024 8.35667 4.60199 8.35714 4.5V1.28571H9.64286V0H1.92857C1.41708 0 0.926543 0.203188 0.564866 0.564866C0.203188 0.926543 0 1.41708 0 1.92857V16.0714C0 16.5829 0.203188 17.0735 0.564866 17.4351C0.926543 17.7968 1.41708 18 1.92857 18H14.1429V16.7143H1.92857C1.75808 16.7143 1.59456 16.6466 1.474 16.526C1.35344 16.4054 1.28571 16.2419 1.28571 16.0714V15.4286H16.7143V16.0714C16.7143 16.2419 16.6466 16.4054 16.526 16.526C16.4054 16.6466 16.2419 16.7143 16.0714 16.7143H15.4286V18H16.0714C16.5829 18 17.0735 17.7968 17.4351 17.4351C17.7968 17.0735 18 16.5829 18 16.0714V7.71429H15.4286ZM7.07143 1.28571V3.60643L6.01071 3.24643C5.87924 3.20279 5.73719 3.20279 5.60571 3.24643L4.5 3.61286V1.28571H7.07143ZM1.28571 14.1429V12.8571H16.7143V14.1429H1.28571Z" fill="#374151"/>
</svg>
