<svg width="22" height="23" viewBox="0 0 22 23" fill="none" xmlns="http://www.w3.org/2000/svg">
<path d="M10.9251 4.05117C10.9251 4.46314 10.3066 4.46314 10.3066 4.05117C10.3066 3.63919 10.9251 3.63919 10.9251 4.05117Z" fill="black"/>
<path d="M12.4505 5.57656C12.4505 5.98945 11.833 5.98945 11.833 5.57656C11.833 5.16459 12.4505 5.16459 12.4505 5.57656Z" fill="black"/>
<path d="M13.8863 7.3221C13.9738 7.23362 14.0006 7.10091 13.9526 6.9857C13.9047 6.86957 13.7923 6.79492 13.6669 6.79492C13.5425 6.79492 13.4292 6.86958 13.3822 6.9857C13.3342 7.1009 13.36 7.23362 13.4485 7.3221C13.5692 7.44283 13.7646 7.44283 13.8863 7.3221Z" fill="black"/>
<path d="M15.4104 8.84646C15.4989 8.75798 15.5257 8.62527 15.4777 8.50914C15.4298 8.39393 15.3174 8.31836 15.192 8.31836C15.0667 8.31836 14.9543 8.39393 14.9063 8.50914C14.8584 8.62526 14.8851 8.75798 14.9736 8.84646C15.0308 8.90452 15.11 8.9377 15.192 8.9377C15.2741 8.9377 15.3533 8.90452 15.4104 8.84646Z" fill="black"/>
<path d="M17.0276 10.1547C17.0276 10.5667 16.4092 10.5667 16.4092 10.1547C16.4092 9.74271 17.0276 9.74271 17.0276 10.1547Z" fill="black"/>
<path d="M8.33549 9.8221C8.42397 9.73362 8.44977 9.60091 8.40185 9.4857C8.35392 9.36957 8.24149 9.29492 8.11707 9.29492C7.99173 9.29492 7.87929 9.36958 7.83137 9.4857C7.78345 9.6009 7.80926 9.73362 7.89773 9.8221C7.95579 9.88016 8.03413 9.91334 8.11708 9.91334C8.19911 9.91334 8.27743 9.88017 8.33549 9.8221Z" fill="black"/>
<path d="M9.85893 11.3465C9.9474 11.258 9.97321 11.1243 9.92529 11.0091C9.87736 10.8939 9.76492 10.8184 9.63959 10.8184C9.51517 10.8184 9.40273 10.8939 9.35481 11.0091C9.30689 11.1243 9.33269 11.258 9.42117 11.3465C9.47923 11.4045 9.55757 11.4368 9.6396 11.4368C9.72162 11.4368 9.80086 11.4045 9.85893 11.3465Z" fill="black"/>
<path d="M11.4768 12.6527C11.4768 13.0647 10.8584 13.0647 10.8584 12.6527C10.8584 12.2408 11.4768 12.2408 11.4768 12.6527Z" fill="black"/>
<path d="M8.88307 6.09414C8.88307 6.50611 8.26465 6.50611 8.26465 6.09414C8.26465 5.68216 8.88307 5.68216 8.88307 6.09414Z" fill="black"/>
<path d="M10.3187 7.83865C10.4072 7.75017 10.433 7.61745 10.385 7.50132C10.338 7.38612 10.2247 7.31055 10.1003 7.31055C9.97492 7.31055 9.86249 7.38612 9.81457 7.50132C9.76665 7.61745 9.79337 7.75017 9.88093 7.83865C10.0026 7.95846 10.198 7.95846 10.3187 7.83865Z" fill="black"/>
<path d="M11.8431 9.36404C11.9325 9.27556 11.9583 9.14285 11.9113 9.02764C11.8634 8.91151 11.75 8.83594 11.6256 8.83594C11.5003 8.83594 11.3878 8.91151 11.3399 9.02764C11.292 9.14284 11.3187 9.27556 11.4072 9.36404C11.4653 9.4221 11.5436 9.45528 11.6256 9.45528C11.7077 9.45528 11.786 9.4221 11.8431 9.36404Z" fill="black"/>
<path d="M13.4592 10.671C13.4592 11.083 12.8408 11.083 12.8408 10.671C12.8408 10.2581 13.4592 10.2581 13.4592 10.671Z" fill="black"/>
<path d="M14.9856 12.1957C14.9856 12.6077 14.3672 12.6077 14.3672 12.1957C14.3672 11.7837 14.9856 11.7837 14.9856 12.1957Z" fill="black"/>
<path d="M14.4202 3.77029C14.5087 3.68181 14.5354 3.54817 14.4875 3.43297C14.4396 3.31776 14.3271 3.24219 14.2018 3.24219C14.0765 3.24219 13.964 3.31776 13.9161 3.43297C13.8682 3.54817 13.8949 3.68181 13.9834 3.77029C14.0414 3.82743 14.1198 3.86061 14.2018 3.86061C14.2838 3.86061 14.3621 3.82743 14.4202 3.77029Z" fill="black"/>
<path d="M16.0178 5.06162C16.0178 5.47359 15.3994 5.47359 15.3994 5.06162C15.3994 4.64873 16.0178 4.64873 16.0178 5.06162Z" fill="black"/>
<path d="M17.5277 6.5707C17.5277 6.98267 16.9102 6.98267 16.9102 6.5707C16.9102 6.15873 17.5277 6.15873 17.5277 6.5707Z" fill="black"/>
<path d="M21.6162 18.1301C21.2706 16.8748 20.29 15.8942 19.0348 15.5477C18.985 15.5173 18.9288 15.4989 18.8698 15.4943H18.8643C17.8053 15.2519 16.6938 15.4842 15.8202 16.1284C14.9465 16.7735 14.3972 17.767 14.3161 18.8499C14.235 19.9328 14.6295 20.9974 15.3972 21.7659C16.1658 22.5336 17.2303 22.9281 18.3131 22.847C19.396 22.7659 20.3896 22.2166 21.0347 21.3429C21.6789 20.4692 21.9112 19.3576 21.6688 18.2988V18.2923C21.6642 18.2352 21.6457 18.1799 21.6162 18.1301ZM20.7692 18.0444C20.325 18.2195 19.9877 18.5918 19.8568 19.0508L19.8135 19.1863V19.1854C19.7508 19.4047 19.6697 19.6185 19.572 19.825C19.231 20.4618 18.5149 20.801 17.8062 20.6627C17.1417 20.542 16.6219 20.0231 16.5002 19.3586C16.3629 18.6508 16.7011 17.9356 17.3352 17.5928C17.5444 17.4942 17.7601 17.4121 17.9822 17.3485L18.114 17.3061C18.573 17.1753 18.9444 16.8379 19.1186 16.3937C19.8743 16.6896 20.4734 17.2887 20.7692 18.0444ZM18.0597 22.0195C16.4496 22.0195 15.1437 20.7135 15.1437 19.1035C15.1437 17.4925 16.4497 16.1875 18.0597 16.1875C18.1546 16.1922 18.2486 16.2023 18.3426 16.2161C18.2339 16.3866 18.0652 16.5083 17.8708 16.558L17.7436 16.5986L17.7427 16.5995C17.4791 16.676 17.221 16.7746 16.974 16.8954C16.033 17.3921 15.5261 18.4446 15.7261 19.4907C15.81 19.9764 16.0432 20.4234 16.3925 20.7718C16.7399 21.1211 17.1887 21.3542 17.6745 21.4381C17.8201 21.4621 17.9666 21.474 18.1141 21.475C19.0173 21.486 19.8504 20.9883 20.2679 20.1874C20.3868 19.9423 20.4845 19.687 20.5601 19.4252L20.6025 19.2935C20.6532 19.099 20.7748 18.9303 20.9444 18.8216C20.9592 18.9156 20.9693 19.0105 20.9739 19.1054C20.9711 20.7137 19.6679 22.0169 18.0596 22.0197L18.0597 22.0195Z" fill="black"/>
<path d="M0.671785 20.2531C1.36393 20.9434 2.48464 20.9434 3.17674 20.2531L6.327 17.1075L6.32607 17.1066C6.44128 16.9932 6.50487 16.8384 6.50487 16.6771C6.50118 16.6356 6.49289 16.5942 6.48091 16.5545C7.46246 15.9831 8.52048 15.5509 9.62267 15.2725C10.1075 15.349 10.5968 15.3878 11.0871 15.3878C13.5959 15.3712 16.0355 14.5647 18.0594 13.0837C19.5625 12.0975 20.5513 10.4957 20.7606 8.71055C20.8989 6.80462 19.9542 4.82228 17.9534 2.82034L17.9442 2.81113C15.9406 0.815796 13.958 -0.124183 12.0604 0.0131328C10.2752 0.222344 8.67418 1.21125 7.68725 2.71345C5.89744 5.14008 5.11316 8.1641 5.49651 11.1546C5.2191 12.2541 4.7887 13.3094 4.2182 14.29C4.17949 14.2771 4.13894 14.2697 4.09746 14.266C3.93618 14.266 3.78135 14.3306 3.66798 14.4448L0.517732 17.5904C-0.172577 18.2834 -0.172577 19.4042 0.517732 20.0963L0.671785 20.2531ZM8.31761 3.18715V3.18623C9.17013 1.87014 10.5609 0.996433 12.1167 0.80018C12.219 0.792807 12.3213 0.78912 12.4245 0.78912C14.0033 0.78912 15.6741 1.66006 17.4033 3.38916C19.23 5.21861 20.0944 6.99006 19.9738 8.65814L19.9729 8.65906C19.7766 10.2148 18.9038 11.6045 17.5878 12.4572C15.304 14.1327 12.4616 14.8617 9.65345 14.4922H9.64239C8.80093 14.388 8.01016 14.0323 7.37332 13.4719L7.27009 13.3696C6.73001 12.7503 6.38717 11.9835 6.28486 11.1678C6.28302 11.1319 6.27657 11.096 6.26459 11.0628C5.92174 8.27021 6.65629 5.45287 8.31798 3.18361L8.31761 3.18715ZM6.71212 13.9205L6.84483 14.0541H6.84576C7.231 14.4191 7.68537 14.7029 8.18214 14.8891C7.4181 15.1472 6.68725 15.4937 6.0043 15.9223L4.84766 14.7656C5.27622 14.0827 5.62182 13.3509 5.87897 12.5869C6.06422 13.0827 6.34809 13.5361 6.71212 13.9205ZM4.0965 15.1269L5.64393 16.6725L4.59695 17.7204L2.07996 17.1416L4.0965 15.1269ZM1.07366 18.1497L1.42573 17.7977L3.94272 18.3774L2.62293 19.6962C2.23769 20.0805 1.61467 20.0805 1.23035 19.6962L1.07275 19.5386V19.5395C0.692107 19.1543 0.692098 18.5341 1.07366 18.1497Z" fill="black"/>
</svg>
