<svg width="17" height="17" viewBox="0 0 17 17" fill="none" xmlns="http://www.w3.org/2000/svg">
<path fill-rule="evenodd" clip-rule="evenodd" d="M3.75196 11.953L5.02276 13.2237C6.54311 12.0628 8.2794 11.3757 10.8113 11.1102C10.9343 11.1074 11.0224 11.1046 11.1482 11.0934C14.3217 10.8174 16.7018 8.43746 16.9779 5.26583C17.2541 2.09402 14.9061 -0.253663 11.7327 0.0231351C10.7855 0.105609 9.90957 0.375404 9.13867 0.797542C9.29245 1.11485 9.37913 1.4713 9.37913 1.84733C9.37913 3.47094 7.80847 4.61585 6.27406 4.15172C6.08184 4.6843 5.95532 5.25322 5.90289 5.85011C5.89101 5.9857 5.89101 6.05419 5.88891 6.18629C5.62328 8.71845 4.91868 10.4372 3.75265 11.9525L3.75196 11.953ZM5.78264 0.42145C6.47536 -0.140483 7.46726 -0.140483 8.15994 0.42145C7.51684 1.1057 6.4257 1.1057 5.78264 0.42145ZM5.08292 1.8885C5.08292 1.48312 5.21084 1.10779 5.42823 0.799573C6.27265 1.67253 7.66918 1.67253 8.51434 0.799573C8.97359 1.44888 8.97498 2.31974 8.51853 2.97119C7.67343 2.09263 6.2699 2.09263 5.42473 2.97119C5.20944 2.66437 5.08363 2.29113 5.08363 1.88855L5.08292 1.8885ZM5.77704 3.35135C5.9448 3.18082 6.09719 3.06339 6.32436 2.96484C6.95697 2.69087 7.69162 2.84812 8.16071 3.34645C8.16211 3.34855 8.1635 3.34995 8.1656 3.35134C7.47079 3.91888 6.47192 3.91889 5.77704 3.35135ZM9.0743 7.63787C9.05403 7.46034 9.18195 7.2996 9.3595 7.27932C9.53775 7.25905 9.69782 7.38766 9.71809 7.56589C9.73836 7.74342 9.61045 7.90417 9.43289 7.92444C9.25464 7.94471 9.09457 7.81611 9.0743 7.63787ZM12.1402 2.53438C12.1171 2.35685 12.2429 2.19471 12.4198 2.17234C12.5973 2.14928 12.7595 2.27509 12.7819 2.45191V2.45331C12.8049 2.63084 12.6798 2.79298 12.5023 2.81535C12.3247 2.83842 12.1626 2.71261 12.1402 2.53578V2.53438ZM8.05305 6.62104C8.02999 6.44351 8.15581 6.28137 8.33266 6.259C8.50951 6.23594 8.67167 6.36174 8.69474 6.53857V6.53997C8.7178 6.7168 8.59268 6.87964 8.41513 6.90201C8.23758 6.92507 8.07542 6.79927 8.05305 6.62244V6.62104ZM14.1834 4.5752C14.1624 4.39768 14.2889 4.23623 14.4672 4.21456C14.6447 4.19359 14.8062 4.3201 14.8279 4.49832V4.49972C14.8495 4.67725 14.7223 4.83869 14.5448 4.86036C14.3672 4.88133 14.2058 4.75482 14.1841 4.5766V4.5752H14.1834ZM10.0963 8.66401C10.0739 8.48648 10.1997 8.32434 10.378 8.30197C10.5555 8.27961 10.7177 8.40541 10.74 8.58364V8.58503C10.7624 8.76256 10.6366 8.92471 10.459 8.94707C10.2815 8.96944 10.1193 8.84363 10.097 8.66541V8.66401H10.0963ZM11.1196 5.5958C11.0986 5.41827 11.2259 5.25822 11.4034 5.23725C11.581 5.21628 11.741 5.34348 11.762 5.521V5.5224C11.783 5.69993 11.6557 5.85998 11.4789 5.88095C11.3014 5.90192 11.1413 5.77471 11.1203 5.59719V5.5958H11.1196ZM13.1621 7.63805C13.1418 7.46052 13.2698 7.29977 13.4473 7.2795C13.6256 7.25923 13.7856 7.38784 13.8059 7.56607C13.8262 7.7436 13.6983 7.90435 13.5207 7.92462C13.3425 7.94489 13.1824 7.81628 13.1621 7.63805ZM9.07498 3.55211C9.05401 3.37458 9.18123 3.21453 9.35877 3.19356C9.53632 3.17259 9.69709 3.2998 9.71736 3.47732V3.47872C9.73833 3.65554 9.61111 3.81629 9.43427 3.83726C9.25742 3.85823 9.09665 3.73103 9.07568 3.55351V3.55211L9.07498 3.55211ZM10.0969 4.57393C10.076 4.39711 10.2032 4.23636 10.38 4.21539C10.5576 4.19442 10.7176 4.32162 10.7386 4.49914V4.50054C10.7596 4.67807 10.6324 4.83812 10.4555 4.85909C10.278 4.88006 10.1179 4.75285 10.0969 4.57533V4.57393ZM12.1394 6.61476C12.1198 6.43723 12.2485 6.27718 12.4267 6.2583C12.605 6.23873 12.7643 6.36803 12.7839 6.54627C12.8035 6.72379 12.6749 6.88384 12.4966 6.90272C12.3184 6.92229 12.159 6.79299 12.1394 6.61476ZM12.1415 4.5759C12.1184 4.39837 12.2443 4.23623 12.4211 4.21386C12.5987 4.1908 12.7608 4.31661 12.7832 4.49344V4.49483C12.8063 4.67236 12.6811 4.83451 12.5036 4.85687C12.326 4.87994 12.1639 4.75413 12.1415 4.5773V4.5759ZM10.3779 2.17025C10.5548 2.14718 10.7176 2.27299 10.74 2.44982V2.45122C10.7631 2.62805 10.6379 2.79089 10.4604 2.81326C10.2828 2.83632 10.1207 2.71051 10.0983 2.53369V2.53229C10.0752 2.35476 10.2004 2.19262 10.3779 2.17025ZM11.1202 3.55622C11.0965 3.3787 11.2209 3.21585 11.3985 3.19208C11.576 3.16831 11.7389 3.29272 11.7626 3.47025V3.47165C11.7864 3.64848 11.662 3.81202 11.4844 3.8358C11.3076 3.85956 11.144 3.73515 11.1202 3.55762V3.55622ZM13.1642 5.59991C13.1404 5.42238 13.2648 5.25954 13.4424 5.23576C13.6192 5.212 13.7828 5.33641 13.8066 5.51394V5.51534C13.8303 5.69286 13.7059 5.85571 13.5291 5.87948C13.3515 5.90325 13.1887 5.77884 13.1649 5.60131V5.59991H13.1642ZM10.0997 6.61546C10.078 6.43793 10.2053 6.27648 10.3828 6.25481C10.5604 6.23385 10.7218 6.36035 10.7435 6.53857V6.53997C10.7652 6.7175 10.6379 6.87894 10.4604 6.90061C10.2829 6.92158 10.1214 6.79507 10.0997 6.61755V6.61546ZM12.1436 8.65914C12.1227 8.48162 12.2492 8.32017 12.4274 8.2985C12.605 8.27683 12.7664 8.40404 12.7881 8.58156V8.58296C12.8098 8.76049 12.6826 8.92193 12.505 8.9436C12.3275 8.96457 12.166 8.83806 12.1443 8.65984V8.65844L12.1436 8.65914ZM8.05723 4.5732C8.03556 4.39567 8.16138 4.23423 8.33892 4.21256C8.51577 4.19089 8.67794 4.3167 8.69961 4.49422V4.49562C8.72128 4.67245 8.59545 4.8346 8.41791 4.85557C8.24106 4.87723 8.0789 4.75143 8.05723 4.5739V4.5725V4.5732ZM9.07777 5.59572C9.05541 5.4182 9.18123 5.25605 9.35947 5.23369C9.53702 5.21132 9.69918 5.33713 9.72155 5.51535V5.51675C9.74392 5.69428 9.6181 5.85642 9.43985 5.87879C9.2623 5.90115 9.10014 5.77535 9.07777 5.59712V5.59572ZM11.1224 7.64013C11.0993 7.4626 11.2252 7.30045 11.402 7.27809C11.5796 7.25502 11.7417 7.38083 11.7641 7.55766V7.55906C11.7872 7.73659 11.662 7.89873 11.4845 7.9211C11.3069 7.94416 11.1448 7.81835 11.1224 7.64152V7.64013ZM14.1854 6.6176C14.1645 6.44008 14.291 6.27863 14.4692 6.25696C14.6468 6.23599 14.8082 6.3625 14.8299 6.54002V6.54142C14.8516 6.71895 14.7244 6.88039 14.5468 6.90206C14.3693 6.92303 14.2078 6.79652 14.1861 6.619V6.6176H14.1854ZM13.1628 3.55708C13.1397 3.37956 13.2655 3.21741 13.4424 3.19505C13.6192 3.17198 13.7821 3.29779 13.8045 3.47462V3.47601C13.8275 3.65354 13.7024 3.81569 13.5249 3.83805C13.3473 3.86112 13.1852 3.73531 13.1628 3.55848V3.55708ZM5.30312 11.917C5.16262 11.9904 5.01024 11.8387 5.08362 11.6982L6.40196 9.17933C6.45927 9.0696 6.61236 9.06191 6.68086 9.16466C6.98702 9.62385 7.37777 10.0139 7.83701 10.3193C7.93977 10.3878 7.93208 10.5408 7.82234 10.5982L5.3017 11.917L5.30312 11.917ZM4.44334 14.1081L4.66702 13.6035L3.39691 12.3336L2.89223 12.5572C2.57908 12.6963 2.33372 12.8647 2.09116 13.1066L0.193973 15.0028C-0.0646577 15.2614 -0.0646577 15.6822 0.193973 15.9408L1.05934 16.806C1.31727 17.0646 1.73878 17.0646 1.99741 16.806L3.89388 14.9091C4.13575 14.6672 4.30424 14.4213 4.44334 14.1081Z" fill="#374151"/>
</svg>
