<svg width="24" height="24" viewBox="0 0 24 24" fill="none" xmlns="http://www.w3.org/2000/svg">
<path d="M12.9873 0C18.511 0.446194 22.9789 4.63526 23.8593 10.032C23.7161 10.0507 23.5738 10.095 23.4389 10.1673C22.3111 10.7717 21.1029 11.1229 19.7858 11.5096C18.5159 11.8824 17.111 12.2965 15.8595 13.0506C14.5617 13.8328 13.446 14.9652 12.6746 16.7265C11.9185 18.4528 11.5183 20.725 11.5183 23.7648V24C5.94508 23.776 1.34981 19.7488 0.250273 14.4395C0.440036 14.4386 0.632405 14.3935 0.812083 14.2993C1.96857 13.6927 3.20724 13.3404 4.55239 12.9538C5.85034 12.5809 7.28063 12.1681 8.55456 11.4167C9.87488 10.638 11.0148 9.50788 11.8041 7.74392C12.578 6.01458 12.9873 3.73889 12.9873 0.696667V0ZM24 12.6288C23.7007 18.3108 19.4626 22.9471 13.969 23.8504V23.7648C13.969 20.9147 14.3484 19.015 14.919 17.7121C15.4743 16.4442 16.2325 15.6901 17.1233 15.1532C18.0607 14.5883 19.1594 14.2508 20.4754 13.8644C21.5643 13.5448 22.7941 13.193 24 12.6288ZM10.5366 0.696667C10.5366 3.54427 10.1494 5.44047 9.56773 6.74038C9.00153 8.00552 8.22676 8.76195 7.31074 9.30226C6.34834 9.86992 5.22067 10.2087 3.87642 10.595C2.67822 10.9393 1.31736 11.3195 0 11.9612C0.0119374 5.82985 4.60645 0.775807 10.5366 0.050012V0.696667Z" fill="#3DBE64"/>
</svg>
