<svg width="15" height="15" viewBox="0 0 15 15" fill="none" xmlns="http://www.w3.org/2000/svg">
<path d="M4.91138 11.2383L7.01542 9.96915L9.11946 11.255L8.5684 8.85034L10.422 7.24726L7.98395 7.03018L7.01542 4.75915L6.0469 7.01348L3.60888 7.23056L5.46244 8.85034L4.91138 11.2383ZM2.89084 14.0269L3.97626 9.3346L0.335938 6.17854L5.14517 5.76108L7.01542 1.33592L8.88568 5.76108L13.6949 6.17854L10.0546 9.3346L11.14 14.0269L7.01542 11.5388L2.89084 14.0269ZM10.5222 4.67566L10.8728 3.18947L9.68722 2.20425L11.2569 2.07066L11.858 0.667969L12.4592 2.07066L14.0289 2.20425L12.8433 3.18947L13.1939 4.67566L11.858 3.89082L10.5222 4.67566Z" fill="#374151"/>
</svg>
