<svg width="18" height="20" viewBox="0 0 18 20" fill="none" xmlns="http://www.w3.org/2000/svg">
<path d="M5.87417 11.3848L12.135 15.0332M12.1258 4.96815L5.87417 8.61648M17.25 3.58398C17.25 5.10277 16.0188 6.33398 14.5 6.33398C12.9812 6.33398 11.75 5.10277 11.75 3.58398C11.75 2.0652 12.9812 0.833984 14.5 0.833984C16.0188 0.833984 17.25 2.0652 17.25 3.58398ZM6.25 10.0007C6.25 11.5194 5.01878 12.7507 3.5 12.7507C1.98122 12.7507 0.75 11.5194 0.75 10.0007C0.75 8.48187 1.98122 7.25065 3.5 7.25065C5.01878 7.25065 6.25 8.48187 6.25 10.0007ZM17.25 16.4173C17.25 17.9361 16.0188 19.1673 14.5 19.1673C12.9812 19.1673 11.75 17.9361 11.75 16.4173C11.75 14.8985 12.9812 13.6673 14.5 13.6673C16.0188 13.6673 17.25 14.8985 17.25 16.4173Z" stroke="#374151" stroke-linecap="round" stroke-linejoin="round"/>
</svg>
