<svg width="21" height="21" viewBox="0 0 21 21" fill="none" xmlns="http://www.w3.org/2000/svg">
<path d="M2.28516 3.8006C5.12733 2.30114 8.74373 0.917771 12.1178 0.0746868C13.1048 -0.171999 14.1248 0.198997 14.6381 1.08997C15.0047 1.72651 15.4523 2.5991 15.9256 3.73966M12.663 13.2849C12.7082 14.3152 13.4901 15.0828 14.5038 15.1239C15.0204 15.1452 15.6628 15.1602 16.4417 15.1602C17.2207 15.1602 17.8631 15.1452 18.3797 15.1239C19.3939 15.0828 20.1753 14.3152 20.2205 13.2849C20.2386 12.8656 20.251 12.364 20.251 11.7743C20.251 11.1847 20.2386 10.6831 20.2205 10.2638C20.1753 9.23349 19.3934 8.46586 18.3797 8.42475C17.734 8.39956 17.0879 8.38746 16.4417 8.38847C15.6628 8.38847 15.0204 8.40346 14.5038 8.42475C13.4896 8.46586 12.7082 9.23349 12.663 10.2638C12.6419 10.767 12.6318 11.2707 12.6325 11.7743C12.6325 12.3645 12.6449 12.8656 12.663 13.2849Z" fill="#1F41BB"/>
<path d="M18.2839 8.42406C18.2542 7.61506 18.2077 6.80679 18.1444 5.99978C18.0454 4.76586 17.1021 3.83765 15.8865 3.75204C14.4866 3.65336 12.3267 3.55469 9.29696 3.55469C6.26718 3.55469 4.10686 3.65336 2.70696 3.75204C1.49181 3.83717 0.54855 4.76586 0.449509 5.99978C0.347136 7.27383 0.25 9.17186 0.25 11.7775C0.25 14.3832 0.347136 16.2808 0.449509 17.5553C0.54855 18.7892 1.49181 19.7174 2.70744 19.803C4.10686 19.9017 6.26718 20.0004 9.29696 20.0004C12.3267 20.0004 14.4871 19.9017 15.8865 19.803C17.1021 19.7179 18.0454 18.7892 18.1444 17.5553C18.1963 16.9105 18.2468 16.1061 18.2839 15.131" fill="#1F41BB"/>
<path d="M18.2839 8.42406C18.2542 7.61506 18.2077 6.80679 18.1444 5.99978C18.0454 4.76586 17.1021 3.83765 15.8865 3.75204C14.4866 3.65336 12.3267 3.55469 9.29696 3.55469C6.26718 3.55469 4.10686 3.65336 2.70696 3.75204C1.49181 3.83717 0.54855 4.76586 0.449509 5.99978C0.347136 7.27383 0.25 9.17186 0.25 11.7775C0.25 14.3832 0.347136 16.2808 0.449509 17.5553C0.54855 18.7892 1.49181 19.7174 2.70744 19.803C4.10686 19.9017 6.26718 20.0004 9.29696 20.0004C12.3267 20.0004 14.4871 19.9017 15.8865 19.803C17.1021 19.7179 18.0454 18.7892 18.1444 17.5553C18.1963 16.9105 18.2468 16.1061 18.2839 15.131" stroke="white" stroke-width="0.5" stroke-linejoin="round"/>
<path d="M17.8656 11.483C17.8656 12.0173 17.4392 12.4504 16.9132 12.4504C16.3873 12.4504 15.9609 12.0173 15.9609 11.483C15.9609 10.9487 16.3873 10.5156 16.9132 10.5156C17.4392 10.5156 17.8656 10.9487 17.8656 11.483Z" fill="white"/>
</svg>
