<svg width="26" height="26" viewBox="0 0 26 26" fill="none" xmlns="http://www.w3.org/2000/svg">
<mask id="mask0_6029_3761" style="mask-type:alpha" maskUnits="userSpaceOnUse" x="0" y="0" width="26" height="26">
<rect x="0.5" y="0.5" width="25" height="25" fill="#D9D9D9" stroke="#FFD700"/>
</mask>
<g mask="url(#mask0_6029_3761)">
<path d="M9.44043 11.8809C9.44048 12.8111 9.74315 13.6122 10.3496 14.2822L10.4756 14.4141C11.1656 15.1101 12.0075 15.458 13 15.458C13.9307 15.458 14.7288 15.152 15.3936 14.54L15.5244 14.4141C16.2144 13.7179 16.5595 12.8731 16.5596 11.8809V5.03516H9.44043V11.8809ZM5.03516 8.52246C5.03519 9.2974 5.27997 9.98077 5.77051 10.5713C6.26086 11.1615 6.888 11.5562 7.65039 11.7559L7.67676 11.7627V7.3457H5.03516V8.52246ZM18.3232 11.7627L18.3496 11.7559C19.112 11.5562 19.7391 11.1615 20.2295 10.5713C20.72 9.98077 20.9648 9.2974 20.9648 8.52246V7.3457H18.3232V11.7627ZM12.1182 17.1357L12.1016 17.1318C11.1599 16.9339 10.3215 16.5315 9.58691 15.9229C8.85276 15.3146 8.3359 14.5547 8.03613 13.6436L8.03223 13.6309L8.01855 13.6289C6.6815 13.479 5.55601 12.9232 4.6416 11.9609C3.72766 10.9989 3.27054 9.85311 3.27051 8.52246V7.36621C3.27061 6.87232 3.44491 6.45157 3.79297 6.10352C4.14108 5.75551 4.56168 5.58203 5.05566 5.58203H7.67676V3.27051H18.3232V5.58203H20.9443C21.4383 5.58203 21.8589 5.75551 22.207 6.10352C22.5551 6.45157 22.7294 6.87232 22.7295 7.36621V8.52246C22.7295 9.85311 22.2723 10.9989 21.3584 11.9609C20.444 12.9232 19.3185 13.479 17.9814 13.6289L17.9678 13.6309L17.9639 13.6436C17.6641 14.5547 17.1472 15.3146 16.4131 15.9229C15.6785 16.5315 14.8401 16.9339 13.8984 17.1318L13.8818 17.1357V20.9648H18.0713V22.7295H7.92871V20.9648H12.1182V17.1357Z" fill="#374151" stroke="#FFD700" stroke-width="0.0416667"/>
</g>
</svg>
