<svg width="375" height="418" viewBox="0 0 375 418" fill="none" xmlns="http://www.w3.org/2000/svg">
<circle opacity="0.5" cx="188" cy="209" r="129" fill="#CBD6FF" fill-opacity="0.2"/>
<g opacity="0.5">
<circle cx="188" cy="209" r="208.5" stroke="#CBD6FF" stroke-opacity="0.1"/>
<circle cx="188" cy="209" r="208.5" stroke="#CBD6FF" stroke-opacity="0.1"/>
<circle cx="188" cy="209" r="208.5" stroke="#CBD6FF" stroke-opacity="0.1"/>
<circle cx="188" cy="209" r="208.5" stroke="#CBD6FF" stroke-opacity="0.1"/>
<circle cx="188" cy="209" r="208.5" stroke="#CBD6FF" stroke-opacity="0.1"/>
</g>
<g opacity="0.5">
<path d="M188 46.5C280.509 46.5 355.5 121.27 355.5 213.5C355.5 305.73 280.509 380.5 188 380.5C95.4909 380.5 20.5 305.73 20.5 213.5C20.5 121.27 95.4909 46.5 188 46.5Z" stroke="#CBD6FF" stroke-opacity="0.1"/>
<path d="M188 46.5C280.509 46.5 355.5 121.27 355.5 213.5C355.5 305.73 280.509 380.5 188 380.5C95.4909 380.5 20.5 305.73 20.5 213.5C20.5 121.27 95.4909 46.5 188 46.5Z" stroke="#CBD6FF" stroke-opacity="0.1"/>
<path d="M188 46.5C280.509 46.5 355.5 121.27 355.5 213.5C355.5 305.73 280.509 380.5 188 380.5C95.4909 380.5 20.5 305.73 20.5 213.5C20.5 121.27 95.4909 46.5 188 46.5Z" stroke="#CBD6FF" stroke-opacity="0.1"/>
<path d="M188 46.5C280.509 46.5 355.5 121.27 355.5 213.5C355.5 305.73 280.509 380.5 188 380.5C95.4909 380.5 20.5 305.73 20.5 213.5C20.5 121.27 95.4909 46.5 188 46.5Z" stroke="#CBD6FF" stroke-opacity="0.1"/>
<path d="M188 46.5C280.509 46.5 355.5 121.27 355.5 213.5C355.5 305.73 280.509 380.5 188 380.5C95.4909 380.5 20.5 305.73 20.5 213.5C20.5 121.27 95.4909 46.5 188 46.5Z" stroke="#CBD6FF" stroke-opacity="0.1"/>
</g>
</svg>
