<svg width="87" height="89" viewBox="0 0 87 89" fill="none" xmlns="http://www.w3.org/2000/svg">
<g opacity="0.05">
<g clip-path="url(#clip0_7287_34712)">
<mask id="mask0_7287_34712" style="mask-type:luminance" maskUnits="userSpaceOnUse" x="-43" y="-40" width="130" height="129">
<path d="M86.1576 18.13L16.1289 -40L-42.0011 30.0287L28.0275 88.1587L86.1576 18.13Z" fill="white"/>
</mask>
<g mask="url(#mask0_7287_34712)">
<path d="M86.1576 18.13L16.1289 -40L-42.0011 30.0287L28.0275 88.1587L86.1576 18.13Z" fill="#1160E5"/>
<path opacity="0.1" d="M39.9421 54.0169C31.5456 64.1321 18.9204 63.509 10.3614 56.4042C2.41132 49.805 2.60806 36.4542 9.20723 28.5042C15.8065 20.5542 27.6011 19.4591 35.5511 26.0584C43.5011 32.6576 46.5413 46.0669 39.9421 54.0169Z" fill="black"/>
<path d="M8.78125 43.2656L-5.10532 59.9946" stroke="white" stroke-width="5.0562" stroke-linecap="round"/>
<path d="M51.1445 -10.9297L37.2579 5.79943" stroke="white" stroke-width="5.0562" stroke-linecap="round"/>
<path d="M6.96165 43.076C17.4901 51.8156 33.1098 50.3654 41.8493 39.837C50.5888 29.3086 49.1387 13.6888 38.6102 4.9493C28.0818 -3.79022 12.4621 -2.34004 3.72258 8.18837C-5.01694 18.7168 -3.56676 34.3365 6.96165 43.076Z" fill="white"/>
<path d="M40.1248 6.29361C48.3063 14.2798 49.8864 26.8085 44.1819 36.5242C43.9301 36.3651 43.6457 36.2478 43.3365 36.1847C40.7507 35.6567 38.3707 34.6214 35.771 33.4989C33.2643 32.4165 30.4892 31.2215 27.5102 30.7681C24.4207 30.2978 21.1592 30.6228 17.6169 32.3986C14.1447 34.1391 10.5192 37.2139 6.51901 42.0329L6.20947 42.4058C-2.34297 34.7066 -4.33814 22.2668 0.903189 12.4009C1.20561 12.6496 1.5703 12.8316 1.97956 12.9189C4.61372 13.4812 7.04367 14.555 9.68776 15.7147C12.239 16.8338 15.0527 18.0642 18.0639 18.5517C21.1847 19.0569 24.4814 18.7675 28.0558 17.0112C31.56 15.2894 35.2045 12.221 39.208 7.39806L40.1248 6.29361ZM40.9881 40.8263C33.0357 49.4398 20.2065 51.2051 10.2968 45.3982L10.4096 45.2624C14.1602 40.7441 17.2623 38.2322 19.8827 36.9188C22.4327 35.6405 24.6288 35.4439 26.7495 35.7667C28.9809 36.1063 31.1692 37.0191 33.7667 38.1407C35.916 39.0689 38.3312 40.1318 40.9881 40.8263ZM35.3175 4.16863C31.5702 8.68303 28.4603 11.179 25.8262 12.4732C23.2625 13.7328 21.0371 13.9111 18.8719 13.5606C16.5971 13.1923 14.3611 12.2434 11.7189 11.0843C9.36368 10.0513 6.70297 8.86083 3.76723 8.14221C11.8549 -1.56232 25.7995 -3.52029 36.1685 3.14346L35.3175 4.16863Z" fill="#57FF81"/>
</g>
<path d="M51.3713 -7.60047C52.2556 -8.55681 52.2009 -10.0542 51.2 -10.8878C42.7608 -17.9168 32.0377 -21.6741 21.0047 -21.4138C9.18383 -21.1349 -2.06432 -16.2658 -10.3576 -7.83767C-18.6509 0.590413 -23.338 11.9156 -23.4263 23.7394C-23.5146 35.5633 -18.9972 46.9572 -10.8308 55.5083C-2.66434 64.0593 8.50982 69.0959 20.3252 69.5514C32.1406 70.0069 43.6694 65.8455 52.4699 57.9486C61.2704 50.0517 66.6516 39.0393 67.4739 27.2438C68.2413 16.2345 64.981 5.34984 58.3476 -3.40366C57.5609 -4.44178 56.0676 -4.56531 55.0716 -3.72593C54.0756 -2.88655 53.9548 -1.40238 54.7353 -0.359566C60.5822 7.45287 63.4506 17.1294 62.7684 26.9158C62.0314 37.4887 57.208 47.3595 49.3197 54.4379C41.4314 61.5163 31.0976 65.2463 20.5069 64.838C9.91623 64.4298 -0.0996802 59.9152 -7.41964 52.2505C-14.7396 44.5859 -18.7888 34.3729 -18.7096 23.7747C-18.6304 13.1764 -14.4292 3.02513 -6.9955 -4.52935C0.438146 -12.0838 10.5204 -16.4482 21.116 -16.6983C30.9234 -16.9297 40.4578 -13.6193 47.9931 -7.4193C48.9989 -6.59172 50.487 -6.64413 51.3713 -7.60047Z" fill="white"/>
<path d="M51.3713 -7.60047C52.2556 -8.55681 52.2009 -10.0542 51.2 -10.8878C42.8017 -17.8827 32.14 -21.6388 21.1599 -21.4172C9.39178 -21.1796 -1.82649 -16.3915 -10.1391 -8.05817C-18.4518 0.27514 -23.2121 11.5053 -23.4205 23.2739C-23.6149 34.2545 -19.8323 44.9069 -12.8166 53.2879C-11.9805 54.2866 -10.483 54.3376 -9.52883 53.451C-8.57468 52.5643 -8.52597 51.076 -9.35604 50.0723C-15.5443 42.589 -18.8771 33.1179 -18.7043 23.3574C-18.5176 12.8086 -14.2507 2.74254 -6.79969 -4.72699C0.651328 -12.1965 10.7068 -16.4884 21.2551 -16.7013C31.0151 -16.8983 40.4945 -13.589 47.9931 -7.4193C48.9989 -6.59172 50.487 -6.64413 51.3713 -7.60047Z" fill="white"/>
</g>
</g>
<defs>
<clipPath id="clip0_7287_34712">
<rect x="16.1289" y="-40" width="91.0116" height="91.0116" rx="45.5058" transform="rotate(39.6957 16.1289 -40)" fill="white"/>
</clipPath>
</defs>
</svg>
