<svg width="128" height="129" viewBox="0 0 128 129" fill="none" xmlns="http://www.w3.org/2000/svg">
<g opacity="0.02">
<circle cx="61.3352" cy="4.35276" r="4.35276" fill="#3DBE64"/>
<circle cx="43.1321" cy="16.2239" r="4.35276" fill="#3DBE64"/>
<circle cx="92.9914" cy="33.634" r="4.35276" fill="#3DBE64"/>
<circle cx="77.9543" cy="10.6848" r="4.35276" fill="#3DBE64"/>
<circle cx="59.7512" cy="22.5559" r="4.35276" fill="#3DBE64"/>
<circle cx="108.82" cy="37.591" r="4.35276" fill="#3DBE64"/>
<circle cx="95.3645" cy="16.2239" r="4.35276" fill="#3DBE64"/>
<circle cx="77.1633" cy="28.0949" r="4.35276" fill="#3DBE64"/>
<circle cx="24.9289" cy="28.0949" r="4.35276" fill="#3DBE64"/>
<circle cx="24.1379" cy="45.5051" r="4.35276" fill="#3DBE64"/>
<circle cx="4.35276" cy="75.5793" r="4.35276" fill="#3DBE64"/>
<circle cx="5.93675" cy="57.3762" r="4.35276" fill="#3DBE64"/>
<circle cx="41.55" cy="34.427" r="4.35276" fill="#3DBE64"/>
<circle cx="40.759" cy="51.8371" r="4.35276" fill="#3DBE64"/>
<circle cx="20.9719" cy="81.1184" r="4.35276" fill="#3DBE64"/>
<circle cx="22.5559" cy="63.7082" r="4.35276" fill="#3DBE64"/>
<circle cx="58.9602" cy="39.966" r="4.35276" fill="#3DBE64"/>
<circle cx="57.3782" cy="57.3762" r="4.35276" fill="#3DBE64"/>
<circle cx="36.802" cy="85.8684" r="4.35276" fill="#3DBE64"/>
<circle cx="39.175" cy="69.2473" r="4.35276" fill="#3DBE64"/>
<circle cx="74.7883" cy="45.5051" r="4.35276" fill="#3DBE64"/>
<circle cx="73.2063" cy="62.1262" r="4.35276" fill="#3DBE64"/>
<circle cx="52.6301" cy="89.8254" r="4.35276" fill="#3DBE64"/>
<circle cx="55.0032" cy="73.9973" r="4.35276" fill="#3DBE64"/>
<circle cx="91.4074" cy="49.4621" r="4.35276" fill="#3DBE64"/>
<circle cx="89.0344" cy="66.0832" r="4.35276" fill="#3DBE64"/>
<circle cx="69.2492" cy="95.3645" r="4.35276" fill="#3DBE64"/>
<circle cx="70.8313" cy="77.9543" r="4.35276" fill="#3DBE64"/>
<circle cx="106.445" cy="54.2121" r="4.35276" fill="#3DBE64"/>
<circle cx="105.654" cy="71.6223" r="4.35276" fill="#3DBE64"/>
<circle cx="85.8684" cy="101.697" r="4.35276" fill="#3DBE64"/>
<circle cx="87.4504" cy="83.4934" r="4.35276" fill="#3DBE64"/>
<circle cx="123.066" cy="59.7512" r="4.35276" fill="#3DBE64"/>
<circle cx="121.482" cy="77.1614" r="4.35276" fill="#3DBE64"/>
<circle cx="102.488" cy="107.236" r="4.35276" fill="#3DBE64"/>
<circle cx="85.0774" cy="119.107" r="4.35276" fill="#3DBE64"/>
<circle cx="67.6653" cy="112.775" r="4.35276" fill="#3DBE64"/>
<circle cx="51.0461" cy="107.236" r="4.35276" fill="#3DBE64"/>
<circle cx="34.427" cy="101.697" r="4.35276" fill="#3DBE64"/>
<circle cx="18.5989" cy="97.7395" r="4.35276" fill="#3DBE64"/>
<circle cx="32.843" cy="119.107" r="4.35276" fill="#3DBE64"/>
<circle cx="50.2551" cy="124.646" r="4.35276" fill="#3DBE64"/>
</g>
</svg>
