<svg width="168" height="168" viewBox="0 0 168 168" fill="none" xmlns="http://www.w3.org/2000/svg">
<path d="M79 31.1641C67.9243 31.1641 57.0972 34.4484 47.8881 40.6018C38.6789 46.7551 31.5013 55.5011 27.2628 65.7338C23.0243 75.9664 21.9153 87.2262 24.076 98.0891C26.2368 108.952 31.5703 118.93 39.402 126.762C47.2338 134.594 57.212 139.927 68.075 142.088C78.9379 144.249 90.1976 143.14 100.43 138.901C110.663 134.663 119.409 127.485 125.562 118.276C131.716 109.067 135 98.2398 135 87.1641C134.983 72.3171 129.078 58.0829 118.58 47.5845C108.081 37.0861 93.847 31.1807 79 31.1641ZM79 139.164C68.7154 139.164 58.6617 136.114 50.1104 130.4C41.559 124.687 34.894 116.565 30.9583 107.064C27.0225 97.5618 25.9928 87.1064 27.9992 77.0194C30.0056 66.9324 34.9581 57.6668 42.2305 50.3945C49.5028 43.1222 58.7683 38.1697 68.8553 36.1632C78.9423 34.1568 89.3978 35.1866 98.8996 39.1223C108.401 43.0581 116.523 49.7231 122.236 58.2744C127.95 66.8258 131 76.8794 131 87.1641C130.984 100.951 125.501 114.168 115.752 123.916C106.004 133.665 92.7865 139.148 79 139.164Z" fill="#3DBE64"/>
<path d="M114.59 61.7374L67.2619 108.309L53.4409 93.7844C53.0745 93.4037 52.5723 93.1834 52.044 93.1718C51.5157 93.1602 51.0043 93.3581 50.6215 93.7223C50.2386 94.0865 50.0155 94.5874 50.0008 95.1156C49.9861 95.6438 50.181 96.1564 50.5429 96.5414L65.7659 112.541C65.9489 112.734 66.1683 112.888 66.4114 112.995C66.6545 113.102 66.9164 113.159 67.1819 113.163H67.2159C67.7406 113.163 68.2441 112.957 68.6179 112.588L117.394 64.5884C117.589 64.406 117.745 64.1865 117.853 63.9429C117.962 63.6993 118.021 63.4364 118.026 63.1697C118.032 62.9031 117.984 62.638 117.885 62.3902C117.787 62.1423 117.639 61.9167 117.452 61.7265C117.265 61.5363 117.042 61.3855 116.796 61.2829C116.55 61.1803 116.286 61.1279 116.019 61.1289C115.752 61.1299 115.488 61.1843 115.243 61.2888C114.998 61.3933 114.776 61.5458 114.59 61.7374Z" fill="#1F41BB"/>
<path d="M145.721 146.914H101.261C115.336 141.692 127.128 131.689 134.574 118.653C142.019 105.617 144.645 90.3781 141.993 75.6018C139.34 60.8256 131.577 47.452 120.062 37.82C108.547 28.188 94.0123 22.9105 78.9998 22.9105C63.9873 22.9105 49.4526 28.188 37.9374 37.82C26.4222 47.452 18.6595 60.8256 16.0069 75.6018C13.3542 90.3781 15.9803 105.617 23.4261 118.653C30.8718 131.689 42.6633 141.692 56.7383 146.914H12.2783C11.9938 146.877 11.7046 146.901 11.4301 146.984C11.1556 147.068 10.902 147.209 10.6864 147.398C10.4707 147.588 10.2979 147.821 10.1796 148.082C10.0612 148.343 10 148.627 10 148.914C10 149.201 10.0612 149.485 10.1796 149.746C10.2979 150.007 10.4707 150.241 10.6864 150.43C10.902 150.619 11.1556 150.76 11.4301 150.844C11.7046 150.927 11.9938 150.951 12.2783 150.914H145.721C146.006 150.951 146.295 150.927 146.57 150.844C146.844 150.76 147.098 150.619 147.313 150.43C147.529 150.241 147.702 150.007 147.82 149.746C147.938 149.485 148 149.201 148 148.914C148 148.627 147.938 148.343 147.82 148.082C147.702 147.821 147.529 147.588 147.313 147.398C147.098 147.209 146.844 147.068 146.57 146.984C146.295 146.901 146.006 146.877 145.721 146.914ZM19.0003 86.9141C19.0003 75.0472 22.5193 63.4468 29.1121 53.5799C35.705 43.7129 45.0757 36.0226 56.0393 31.4813C67.0029 26.94 79.0669 25.7518 90.7057 28.067C102.345 30.3821 113.036 36.0965 121.427 44.4877C129.818 52.8788 135.532 63.5698 137.847 75.2087C140.163 86.8475 138.974 98.9115 134.433 109.875C129.892 120.839 122.201 130.209 112.335 136.802C102.468 143.395 90.8672 146.914 79.0003 146.914C63.0929 146.896 47.8421 140.569 36.5938 129.321C25.3455 118.072 19.0183 102.822 19.0003 86.9141ZM83.5003 17.6641C84.0937 17.6641 84.6737 17.4881 85.167 17.1585C85.6604 16.8288 86.0449 16.3603 86.272 15.8121C86.499 15.2639 86.5584 14.6607 86.4427 14.0788C86.3269 13.4969 86.0412 12.9623 85.6216 12.5428C85.2021 12.1232 84.6675 11.8375 84.0856 11.7217C83.5037 11.606 82.9005 11.6654 82.3523 11.8924C81.8041 12.1195 81.3356 12.504 81.0059 12.9974C80.6763 13.4907 80.5003 14.0707 80.5003 14.6641C80.5011 15.4595 80.8174 16.2221 81.3799 16.7845C81.9423 17.347 82.7049 17.6633 83.5003 17.6641ZM83.5003 13.1641C83.797 13.1641 84.087 13.2521 84.3337 13.4169C84.5804 13.5817 84.7726 13.816 84.8861 14.0901C84.9997 14.3641 85.0294 14.6657 84.9715 14.9567C84.9136 15.2477 84.7708 15.515 84.561 15.7247C84.3512 15.9345 84.0839 16.0774 83.793 16.1353C83.502 16.1931 83.2004 16.1634 82.9263 16.0499C82.6522 15.9364 82.4179 15.7441 82.2531 15.4974C82.0883 15.2508 82.0003 14.9607 82.0003 14.6641C82.0006 14.2663 82.1587 13.885 82.4399 13.6037C82.7212 13.3225 83.1026 13.1643 83.5003 13.1641ZM153.305 67.9141C152.91 67.9141 152.523 68.0314 152.194 68.2511C151.865 68.4709 151.609 68.7833 151.458 69.1487C151.306 69.5142 151.267 69.9163 151.344 70.3043C151.421 70.6922 151.611 71.0486 151.891 71.3283C152.171 71.608 152.527 71.7985 152.915 71.8756C153.303 71.9528 153.705 71.9132 154.071 71.7618C154.436 71.6105 154.749 71.3541 154.968 71.0252C155.188 70.6963 155.305 70.3096 155.305 69.9141C155.305 69.3838 155.094 68.8754 154.719 68.5005C154.344 68.1255 153.836 67.9146 153.305 67.9141ZM153.305 70.9141C153.108 70.9141 152.914 70.8554 152.75 70.7455C152.585 70.6357 152.457 70.4795 152.381 70.2968C152.306 70.114 152.286 69.913 152.325 69.719C152.363 69.525 152.458 69.3468 152.598 69.207C152.738 69.0671 152.916 68.9719 153.11 68.9333C153.304 68.8947 153.505 68.9145 153.688 68.9902C153.871 69.0659 154.027 69.1941 154.137 69.3585C154.247 69.523 154.305 69.7163 154.305 69.9141C154.305 70.1792 154.2 70.4334 154.012 70.6209C153.825 70.8084 153.57 70.9138 153.305 70.9141ZM125 3.58008C124.605 3.58008 124.218 3.69738 123.889 3.91714C123.56 4.1369 123.304 4.44926 123.153 4.81471C123.001 5.18016 122.962 5.5823 123.039 5.97026C123.116 6.35822 123.306 6.71459 123.586 6.99429C123.866 7.274 124.222 7.46448 124.61 7.54165C124.998 7.61882 125.4 7.57921 125.766 7.42784C126.131 7.27646 126.443 7.02012 126.663 6.69122C126.883 6.36232 127 5.97564 127 5.58008C127 5.04981 126.789 4.54141 126.414 4.16645C126.039 3.79149 125.531 3.58061 125 3.58008ZM125 6.58008C124.803 6.58008 124.609 6.52143 124.445 6.41155C124.28 6.30167 124.152 6.14549 124.076 5.96276C124.001 5.78004 123.981 5.57897 124.02 5.38499C124.058 5.19101 124.153 5.01282 124.293 4.87297C124.433 4.73312 124.611 4.63788 124.805 4.59929C124.999 4.56071 125.2 4.58051 125.383 4.6562C125.566 4.73189 125.722 4.86006 125.832 5.02451C125.942 5.18896 126 5.3823 126 5.58008C126 5.84521 125.895 6.09941 125.707 6.28689C125.52 6.47437 125.265 6.57981 125 6.58008ZM156.333 15.2471C155.938 15.2471 155.551 15.3644 155.222 15.5841C154.893 15.8039 154.637 16.1163 154.486 16.4817C154.334 16.8472 154.295 17.2493 154.372 17.6373C154.449 18.0252 154.639 18.3816 154.919 18.6613C155.199 18.941 155.555 19.1315 155.943 19.2086C156.331 19.2858 156.733 19.2462 157.099 19.0948C157.464 18.9435 157.777 18.6871 157.996 18.3582C158.216 18.0293 158.333 17.6426 158.333 17.2471C158.333 16.7168 158.122 16.2084 157.747 15.8334C157.372 15.4585 156.864 15.2476 156.333 15.2471ZM156.333 18.2471C156.136 18.2471 155.942 18.1884 155.778 18.0785C155.613 17.9687 155.485 17.8125 155.409 17.6298C155.334 17.447 155.314 17.246 155.353 17.052C155.391 16.858 155.486 16.6798 155.626 16.54C155.766 16.4001 155.944 16.3049 156.138 16.2663C156.332 16.2277 156.533 16.2475 156.716 16.3232C156.899 16.3989 157.055 16.5271 157.165 16.6915C157.275 16.856 157.333 17.0493 157.333 17.2471C157.333 17.5122 157.228 17.7664 157.04 17.9539C156.853 18.1414 156.598 18.2468 156.333 18.2471ZM25.3053 30.5801C25.3053 30.1845 25.188 29.7978 24.9683 29.4689C24.7485 29.14 24.4361 28.8837 24.0707 28.7323C23.7052 28.5809 23.3031 28.5413 22.9151 28.6185C22.5272 28.6957 22.1708 28.8862 21.8911 29.1659C21.6114 29.4456 21.4209 29.8019 21.3438 30.1899C21.2666 30.5779 21.3062 30.98 21.4576 31.3454C21.6089 31.7109 21.8653 32.0233 22.1942 32.243C22.5231 32.4628 22.9098 32.5801 23.3053 32.5801C23.8356 32.5795 24.344 32.3687 24.7189 31.9937C25.0939 31.6187 25.3048 31.1103 25.3053 30.5801ZM22.3053 30.5801C22.3053 30.3823 22.364 30.189 22.4739 30.0245C22.5837 29.8601 22.7399 29.7319 22.9226 29.6562C23.1054 29.5805 23.3064 29.5607 23.5004 29.5993C23.6944 29.6379 23.8726 29.7331 24.0124 29.873C24.1523 30.0128 24.2475 30.191 24.2861 30.385C24.3247 30.579 24.3049 30.78 24.2292 30.9628C24.1535 31.1455 24.0253 31.3017 23.8609 31.4115C23.6964 31.5214 23.5031 31.5801 23.3053 31.5801C23.0402 31.5798 22.786 31.4744 22.5985 31.2869C22.411 31.0994 22.3056 30.8452 22.3053 30.5801Z" fill="#1F41BB"/>
<path d="M20.193 67.9249L21.68 65.9689L20.741 65.4369L19.786 67.6269H19.755L18.785 65.4529L17.83 65.9999L19.301 67.9099V67.9409L17 67.6429V68.7069L19.316 68.4099V68.4409L17.83 70.3499L18.721 70.9139L19.739 68.7069H19.77L20.709 70.8979L21.695 70.3349L20.193 68.4569V68.4249L22.555 68.7069V67.6429L20.193 67.9559V67.9249ZM21.467 6.23794L20.611 7.33694L21.124 7.66194L21.71 6.39094H21.728L22.269 7.65294L22.837 7.32794L21.972 6.24694V6.22894L23.332 6.39094V5.77794L21.972 5.95894V5.94094L22.828 4.81394L22.287 4.50794L21.738 5.76894H21.719L21.161 4.51694L20.611 4.83194L21.458 5.93194V5.94994L20.133 5.77794V6.39094L21.467 6.21994V6.23794ZM74.61 6.29394V5.24994L72.293 5.55694V5.52594L73.751 3.60794L72.83 3.08594L71.894 5.23494H71.863L70.912 3.10094L69.975 3.63894L71.418 5.51094V5.54194L69.161 5.24994V6.29394L71.433 6.00194V6.03294L69.975 7.90494L70.85 8.45794L71.848 6.29394H71.878L72.799 8.44194L73.766 7.88994L72.293 6.04794V6.01694L74.61 6.29394ZM148.163 35.8389L149.421 34.1839L148.626 33.7339L147.819 35.5869H147.792L146.972 33.7469L146.163 34.2099L147.408 35.8259V35.8519L145.462 35.5999V36.4999L147.421 36.2489V36.2759L146.163 37.8899L146.918 38.3669L147.779 36.4999H147.805L148.599 38.3539L149.434 37.8769L148.163 36.2889V36.2619L150.161 36.4999V35.5999L148.163 35.8649V35.8389Z" fill="#3DBE64"/>
<path d="M84 150.914C85.1046 150.914 86 150.019 86 148.914C86 147.809 85.1046 146.914 84 146.914C82.8954 146.914 82 147.809 82 148.914C82 150.019 82.8954 150.914 84 150.914Z" fill="#1F41BB"/>
<path d="M11 146.914H8C7.46957 146.914 6.96086 147.125 6.58579 147.5C6.21071 147.875 6 148.384 6 148.914C6 149.444 6.21071 149.953 6.58579 150.328C6.96086 150.703 7.46957 150.914 8 150.914H11C11.5304 150.914 12.0391 150.703 12.4142 150.328C12.7893 149.953 13 149.444 13 148.914C13 148.384 12.7893 147.875 12.4142 147.5C12.0391 147.125 11.5304 146.914 11 146.914ZM160 146.914H157C156.47 146.914 155.961 147.125 155.586 147.5C155.211 147.875 155 148.384 155 148.914C155 149.444 155.211 149.953 155.586 150.328C155.961 150.703 156.47 150.914 157 150.914H160C160.53 150.914 161.039 150.703 161.414 150.328C161.789 149.953 162 149.444 162 148.914C162 148.384 161.789 147.875 161.414 147.5C161.039 147.125 160.53 146.914 160 146.914Z" fill="#1F41BB"/>
<path d="M84 150.914C85.1046 150.914 86 150.019 86 148.914C86 147.809 85.1046 146.914 84 146.914C82.8954 146.914 82 147.809 82 148.914C82 150.019 82.8954 150.914 84 150.914Z" fill="#1F41BB"/>
<path d="M118.159 154.914H109.851C109.347 154.953 108.877 155.181 108.534 155.552C108.191 155.922 108 156.409 108 156.914C108 157.419 108.191 157.906 108.534 158.277C108.877 158.647 109.347 158.875 109.851 158.914H118.159C118.663 158.875 119.133 158.647 119.476 158.277C119.819 157.906 120.01 157.419 120.01 156.914C120.01 156.409 119.819 155.922 119.476 155.552C119.133 155.181 118.663 154.953 118.159 154.914ZM58.159 154.914H49.851C49.3473 154.953 48.8769 155.181 48.5337 155.552C48.1906 155.922 48 156.409 48 156.914C48 157.419 48.1906 157.906 48.5337 158.277C48.8769 158.647 49.3473 158.875 49.851 158.914H58.159C58.6626 158.875 59.133 158.647 59.4762 158.277C59.8193 157.906 60.0099 157.419 60.0099 156.914C60.0099 156.409 59.8193 155.922 59.4762 155.552C59.133 155.181 58.6626 154.953 58.159 154.914ZM104.005 154.914H64.005C63.4745 154.914 62.9658 155.125 62.5907 155.5C62.2157 155.875 62.005 156.384 62.005 156.914C62.005 157.444 62.2157 157.953 62.5907 158.328C62.9658 158.703 63.4745 158.914 64.005 158.914H79.945V160.914H72.005C71.4745 160.914 70.9658 161.125 70.5907 161.5C70.2157 161.875 70.005 162.384 70.005 162.914C70.005 163.444 70.2157 163.953 70.5907 164.328C70.9658 164.703 71.4745 164.914 72.005 164.914H97.005C97.5354 164.914 98.0441 164.703 98.4192 164.328C98.7943 163.953 99.005 163.444 99.005 162.914C99.005 162.384 98.7943 161.875 98.4192 161.5C98.0441 161.125 97.5354 160.914 97.005 160.914H88.065V158.914H104.005C104.535 158.914 105.044 158.703 105.419 158.328C105.794 157.953 106.005 157.444 106.005 156.914C106.005 156.384 105.794 155.875 105.419 155.5C105.044 155.125 104.535 154.914 104.005 154.914Z" fill="#3DBE64"/>
</svg>
