<svg width="375" height="392" viewBox="0 0 375 392" fill="none" xmlns="http://www.w3.org/2000/svg">
<circle opacity="0.5" cx="188" cy="183" r="129" fill="#CBD6FF" fill-opacity="0.2"/>
<g opacity="0.5">
<circle cx="188" cy="196" r="195.5" stroke="#CBD6FF" stroke-opacity="0.1"/>
<circle cx="188" cy="196" r="195.5" stroke="#CBD6FF" stroke-opacity="0.1"/>
<circle cx="188" cy="196" r="195.5" stroke="#CBD6FF" stroke-opacity="0.1"/>
<circle cx="188" cy="196" r="195.5" stroke="#CBD6FF" stroke-opacity="0.1"/>
<circle cx="188" cy="196" r="195.5" stroke="#CBD6FF" stroke-opacity="0.1"/>
</g>
<g opacity="0.5">
<path d="M188 20.5C280.509 20.5 355.5 95.2698 355.5 187.5C355.5 279.73 280.509 354.5 188 354.5C95.4909 354.5 20.5 279.73 20.5 187.5C20.5 95.2698 95.4909 20.5 188 20.5Z" stroke="#CBD6FF" stroke-opacity="0.1"/>
<path d="M188 20.5C280.509 20.5 355.5 95.2698 355.5 187.5C355.5 279.73 280.509 354.5 188 354.5C95.4909 354.5 20.5 279.73 20.5 187.5C20.5 95.2698 95.4909 20.5 188 20.5Z" stroke="#CBD6FF" stroke-opacity="0.1"/>
<path d="M188 20.5C280.509 20.5 355.5 95.2698 355.5 187.5C355.5 279.73 280.509 354.5 188 354.5C95.4909 354.5 20.5 279.73 20.5 187.5C20.5 95.2698 95.4909 20.5 188 20.5Z" stroke="#CBD6FF" stroke-opacity="0.1"/>
<path d="M188 20.5C280.509 20.5 355.5 95.2698 355.5 187.5C355.5 279.73 280.509 354.5 188 354.5C95.4909 354.5 20.5 279.73 20.5 187.5C20.5 95.2698 95.4909 20.5 188 20.5Z" stroke="#CBD6FF" stroke-opacity="0.1"/>
<path d="M188 20.5C280.509 20.5 355.5 95.2698 355.5 187.5C355.5 279.73 280.509 354.5 188 354.5C95.4909 354.5 20.5 279.73 20.5 187.5C20.5 95.2698 95.4909 20.5 188 20.5Z" stroke="#CBD6FF" stroke-opacity="0.1"/>
</g>
</svg>
