<svg width="32" height="52" viewBox="0 0 32 52" fill="none" xmlns="http://www.w3.org/2000/svg">
<path d="M21.2124 11.5812L13.4101 32.8545H8.22893L0.426685 11.5812H4.99831L10.85 28.4962L16.6712 11.5812H21.2124Z" fill="white"/>
<path d="M20.8758 45.2602C19.3925 45.2602 18.0515 45.0062 16.8527 44.4983C15.6743 43.9903 14.7396 43.2589 14.0488 42.3039C13.358 41.3489 13.0024 40.2213 12.9821 38.9209H17.5537C17.6147 39.7946 17.9194 40.4854 18.468 40.9934C19.037 41.5013 19.8091 41.7553 20.7843 41.7553C21.7799 41.7553 22.5622 41.5216 23.1311 41.0543C23.7 40.5667 23.9845 39.9368 23.9845 39.1647C23.9845 38.5348 23.7914 38.0167 23.4054 37.6104C23.0194 37.204 22.5317 36.8891 21.9425 36.6656C21.3736 36.4217 20.5812 36.1576 19.5652 35.8731C18.1836 35.4668 17.0559 35.0706 16.1822 34.6845C15.3289 34.2782 14.5872 33.6788 13.9574 32.8863C13.3478 32.0736 13.043 30.9967 13.043 29.6557C13.043 28.396 13.358 27.2988 13.9878 26.3642C14.6177 25.4295 15.5016 24.7184 16.6394 24.2307C17.7772 23.7228 19.0776 23.4688 20.5405 23.4688C22.7349 23.4688 24.5128 24.0072 25.8741 25.0841C27.2557 26.1407 28.0177 27.6239 28.1599 29.5338H23.4664C23.4257 28.8024 23.1108 28.203 22.5216 27.7356C21.9526 27.248 21.1907 27.0042 20.2357 27.0042C19.4027 27.0042 18.7322 27.2175 18.2242 27.6442C17.7366 28.0709 17.4928 28.6906 17.4928 29.5033C17.4928 30.0723 17.6756 30.5497 18.0414 30.9358C18.4274 31.3015 18.8947 31.6063 19.4433 31.8501C20.0122 32.0736 20.8047 32.3377 21.8206 32.6425C23.2022 33.0489 24.3299 33.4553 25.2036 33.8616C26.0773 34.268 26.829 34.8775 27.4589 35.6903C28.0888 36.503 28.4037 37.5697 28.4037 38.8904C28.4037 40.0282 28.1091 41.0848 27.5199 42.0601C26.9306 43.0354 26.0671 43.8176 24.9293 44.4068C23.7914 44.9758 22.4403 45.2602 20.8758 45.2602Z" fill="white"/>
</svg>
