<svg width="12" height="12" viewBox="0 0 12 12" fill="none" xmlns="http://www.w3.org/2000/svg">
<mask id="mask0_141_2816" style="mask-type:alpha" maskUnits="userSpaceOnUse" x="0" y="0" width="12" height="12">
<rect width="12" height="12" fill="#D9D9D9"/>
</mask>
<g mask="url(#mask0_141_2816)">
<path d="M6 11C5.11667 11 4.39583 10.8604 3.8375 10.5813C3.27917 10.3021 3 9.94167 3 9.5C3 9.3 3.06042 9.11458 3.18125 8.94375C3.30208 8.77292 3.47083 8.625 3.6875 8.5L4.475 9.2375C4.4 9.27083 4.31875 9.30833 4.23125 9.35C4.14375 9.39167 4.075 9.44167 4.025 9.5C4.13333 9.63333 4.38333 9.75 4.775 9.85C5.16667 9.95 5.575 10 6 10C6.425 10 6.83542 9.95 7.23125 9.85C7.62708 9.75 7.87917 9.63333 7.9875 9.5C7.92917 9.43333 7.85417 9.37917 7.7625 9.3375C7.67083 9.29583 7.58333 9.25833 7.5 9.225L8.275 8.475C8.50833 8.60833 8.6875 8.76042 8.8125 8.93125C8.9375 9.10208 9 9.29167 9 9.5C9 9.94167 8.72083 10.3021 8.1625 10.5813C7.60417 10.8604 6.88333 11 6 11ZM6.0125 8.25C6.8375 7.64167 7.45833 7.03125 7.875 6.41875C8.29167 5.80625 8.5 5.19167 8.5 4.575C8.5 3.725 8.22917 3.08333 7.6875 2.65C7.14583 2.21667 6.58333 2 6 2C5.41667 2 4.85417 2.21667 4.3125 2.65C3.77083 3.08333 3.5 3.725 3.5 4.575C3.5 5.13333 3.70417 5.71458 4.1125 6.31875C4.52083 6.92292 5.15417 7.56667 6.0125 8.25ZM6 9.5C4.825 8.63333 3.94792 7.79167 3.36875 6.975C2.78958 6.15833 2.5 5.35833 2.5 4.575C2.5 3.98333 2.60625 3.46458 2.81875 3.01875C3.03125 2.57292 3.30417 2.2 3.6375 1.9C3.97083 1.6 4.34583 1.375 4.7625 1.225C5.17917 1.075 5.59167 1 6 1C6.40833 1 6.82083 1.075 7.2375 1.225C7.65417 1.375 8.02917 1.6 8.3625 1.9C8.69583 2.2 8.96875 2.57292 9.18125 3.01875C9.39375 3.46458 9.5 3.98333 9.5 4.575C9.5 5.35833 9.21042 6.15833 8.63125 6.975C8.05208 7.79167 7.175 8.63333 6 9.5ZM6 5.5C6.275 5.5 6.51042 5.40208 6.70625 5.20625C6.90208 5.01042 7 4.775 7 4.5C7 4.225 6.90208 3.98958 6.70625 3.79375C6.51042 3.59792 6.275 3.5 6 3.5C5.725 3.5 5.48958 3.59792 5.29375 3.79375C5.09792 3.98958 5 4.225 5 4.5C5 4.775 5.09792 5.01042 5.29375 5.20625C5.48958 5.40208 5.725 5.5 6 5.5Z" fill="#374151"/>
</g>
</svg>
