<svg width="10" height="10" viewBox="0 0 10 10" fill="none" xmlns="http://www.w3.org/2000/svg">
<mask id="mask0_207_4334" style="mask-type:alpha" maskUnits="userSpaceOnUse" x="0" y="0" width="10" height="10">
<rect width="10" height="10" fill="#D9D9D9"/>
</mask>
<g mask="url(#mask0_207_4334)">
<path d="M4.37533 6.25065H5.62533L5.38574 4.9069C5.52463 4.83746 5.63401 4.73676 5.71387 4.60482C5.79373 4.47287 5.83366 4.32704 5.83366 4.16732C5.83366 3.93815 5.75206 3.74197 5.58887 3.57878C5.42567 3.41558 5.22949 3.33398 5.00033 3.33398C4.77116 3.33398 4.57498 3.41558 4.41178 3.57878C4.24859 3.74197 4.16699 3.93815 4.16699 4.16732C4.16699 4.32704 4.20692 4.47287 4.28678 4.60482C4.36664 4.73676 4.47602 4.83746 4.61491 4.9069L4.37533 6.25065ZM5.00033 9.16732C4.03505 8.92426 3.23817 8.37044 2.6097 7.50586C1.98123 6.64128 1.66699 5.68121 1.66699 4.62565V2.08398L5.00033 0.833984L8.33366 2.08398V4.62565C8.33366 5.68121 8.01942 6.64128 7.39095 7.50586C6.76248 8.37044 5.9656 8.92426 5.00033 9.16732ZM5.00033 8.29232C5.72255 8.06315 6.31977 7.60482 6.79199 6.91732C7.26421 6.22982 7.50033 5.46593 7.50033 4.62565V2.6569L5.00033 1.7194L2.50033 2.6569V4.62565C2.50033 5.46593 2.73644 6.22982 3.20866 6.91732C3.68088 7.60482 4.2781 8.06315 5.00033 8.29232Z" fill="#1F41BB"/>
</g>
</svg>
