<svg width="643" height="643" viewBox="0 0 643 643" fill="none" xmlns="http://www.w3.org/2000/svg">
<g clip-path="url(#clip0_6914_7301)">
<rect width="643" height="643" fill="#1160E5"/>
<path opacity="0.1" d="M553.69 403.655C553.69 496.532 482.246 550.116 403.657 550.116C330.66 550.116 271.484 476.651 271.484 403.655C271.484 330.658 330.66 271.482 403.657 271.482C476.653 271.482 553.69 330.658 553.69 403.655Z" fill="black"/>
<path d="M335.789 485.844V639.449" stroke="white" stroke-width="35.7222" stroke-linecap="round"/>
<path d="M321.5 0V153.606" stroke="white" stroke-width="35.7222" stroke-linecap="round"/>
<circle cx="325.051" cy="317.926" r="175.039" fill="white"/>
<path d="M339.363 143.463C419.877 149.958 485.002 210.936 497.834 289.494C495.747 289.765 493.672 290.411 491.706 291.463C475.267 300.261 457.657 305.373 438.459 311.002C419.948 316.429 399.47 322.456 381.229 333.434C362.312 344.819 346.049 361.303 334.805 386.941C323.784 412.071 317.95 445.146 317.95 489.394V492.818C236.715 489.557 169.734 430.935 153.707 353.651C156.473 353.638 159.277 352.982 161.896 351.61C178.753 342.78 196.808 337.652 216.415 332.025C235.334 326.596 256.182 320.588 274.751 309.65C293.996 298.314 310.611 281.864 322.117 256.187C333.397 231.014 339.363 197.888 339.363 153.604V143.463ZM499.885 327.293C495.523 410.003 433.747 477.491 353.673 490.641V489.394C353.673 447.907 359.202 420.254 367.52 401.289C375.614 382.833 386.665 371.855 399.65 364.04C413.313 355.817 429.328 350.904 448.51 345.28C464.382 340.627 482.308 335.507 499.885 327.293ZM303.641 153.604C303.641 195.055 297.998 222.657 289.519 241.579C281.266 259.995 269.973 271.006 256.621 278.871C242.593 287.134 226.156 292.066 206.562 297.688C189.097 302.7 169.261 308.235 150.059 317.576C150.233 228.325 217.203 154.756 303.641 144.191V153.604Z" fill="#57FF81"/>
</g>
<defs>
<clipPath id="clip0_6914_7301">
<rect width="643" height="643" fill="white"/>
</clipPath>
</defs>
</svg>
