<svg width="194" height="58" viewBox="0 0 194 58" fill="none" xmlns="http://www.w3.org/2000/svg">
<rect width="194" height="58" fill="white"/>
<path d="M72.5364 43.2722C70.6437 43.2722 68.9326 42.9481 67.4029 42.3C65.8991 41.6518 64.7065 40.7185 63.825 39.4999C62.9435 38.2813 62.4898 36.8424 62.4639 35.1831H68.2974C68.3751 36.298 68.764 37.1795 69.4641 37.8276C70.19 38.4758 71.1752 38.7999 72.4197 38.7999C73.6901 38.7999 74.6883 38.5017 75.4142 37.9054C76.1402 37.2832 76.5031 36.4794 76.5031 35.4942C76.5031 34.6905 76.2568 34.0294 75.7642 33.5108C75.2716 32.9923 74.6494 32.5904 73.8975 32.3052C73.1716 31.9941 72.1604 31.6571 70.8641 31.2941C69.1011 30.7756 67.6622 30.27 66.5473 29.7774C65.4584 29.2589 64.5121 28.494 63.7083 27.4829C62.9305 26.4458 62.5416 25.0717 62.5416 23.3606C62.5416 21.7531 62.9435 20.3531 63.7472 19.1604C64.551 17.9678 65.6788 17.0604 67.1307 16.4381C68.5826 15.79 70.2419 15.4659 72.1086 15.4659C74.9087 15.4659 77.1772 16.1529 78.9143 17.527C80.6773 18.8752 81.6496 20.7679 81.8311 23.205H75.842C75.7902 22.2716 75.3883 21.5068 74.6364 20.9105C73.9105 20.2882 72.9382 19.9771 71.7197 19.9771C70.6567 19.9771 69.8011 20.2493 69.1529 20.7938C68.5307 21.3383 68.2196 22.129 68.2196 23.1661C68.2196 23.892 68.4529 24.5013 68.9196 24.9939C69.4122 25.4606 70.0085 25.8495 70.7085 26.1606C71.4345 26.4458 72.4456 26.7829 73.742 27.1718C75.505 27.6903 76.9439 28.2088 78.0587 28.7274C79.1736 29.2459 80.1329 30.0237 80.9366 31.0608C81.7403 32.0978 82.1422 33.459 82.1422 35.1442C82.1422 36.5961 81.7663 37.9443 81.0144 39.1888C80.2625 40.4333 79.1606 41.4314 77.7087 42.1833C76.2568 42.9093 74.5327 43.2722 72.5364 43.2722ZM116.73 21.4549L110.43 43H104.557L100.63 27.9496L96.7016 43H90.7904L84.4513 21.4549H89.9737L93.7849 37.8665L97.9072 21.4549H103.663L107.708 37.8276L111.519 21.4549H116.73ZM129.243 43.35C127.169 43.35 125.302 42.8963 123.643 41.9889C121.983 41.0555 120.674 39.7462 119.715 38.061C118.781 36.3757 118.315 34.4312 118.315 32.2275C118.315 30.0237 118.794 28.0792 119.754 26.394C120.739 24.7087 122.074 23.4124 123.759 22.505C125.445 21.5716 127.324 21.1049 129.398 21.1049C131.473 21.1049 133.352 21.5716 135.037 22.505C136.723 23.4124 138.045 24.7087 139.004 26.394C139.989 28.0792 140.482 30.0237 140.482 32.2275C140.482 34.4312 139.976 36.3757 138.965 38.061C137.98 39.7462 136.632 41.0555 134.921 41.9889C133.236 42.8963 131.343 43.35 129.243 43.35ZM129.243 38.6054C130.228 38.6054 131.148 38.3721 132.004 37.9054C132.886 37.4128 133.586 36.6869 134.104 35.7276C134.623 34.7683 134.882 33.6016 134.882 32.2275C134.882 30.1793 134.337 28.6107 133.249 27.5218C132.186 26.4069 130.876 25.8495 129.321 25.8495C127.765 25.8495 126.456 26.4069 125.393 27.5218C124.356 28.6107 123.837 30.1793 123.837 32.2275C123.837 34.2757 124.343 35.8572 125.354 36.9721C126.391 38.061 127.687 38.6054 129.243 38.6054ZM154.043 43.35C151.969 43.35 150.102 42.8963 148.443 41.9889C146.783 41.0555 145.474 39.7462 144.515 38.061C143.581 36.3757 143.115 34.4312 143.115 32.2275C143.115 30.0237 143.594 28.0792 144.554 26.394C145.539 24.7087 146.874 23.4124 148.559 22.505C150.245 21.5716 152.124 21.1049 154.198 21.1049C156.273 21.1049 158.152 21.5716 159.837 22.505C161.523 23.4124 162.845 24.7087 163.804 26.394C164.789 28.0792 165.282 30.0237 165.282 32.2275C165.282 34.4312 164.776 36.3757 163.765 38.061C162.78 39.7462 161.432 41.0555 159.721 41.9889C158.036 42.8963 156.143 43.35 154.043 43.35ZM154.043 38.6054C155.028 38.6054 155.948 38.3721 156.804 37.9054C157.686 37.4128 158.386 36.6869 158.904 35.7276C159.423 34.7683 159.682 33.6016 159.682 32.2275C159.682 30.1793 159.137 28.6107 158.048 27.5218C156.985 26.4069 155.676 25.8495 154.121 25.8495C152.565 25.8495 151.256 26.4069 150.193 27.5218C149.156 28.6107 148.637 30.1793 148.637 32.2275C148.637 34.2757 149.143 35.8572 150.154 36.9721C151.191 38.061 152.487 38.6054 154.043 38.6054ZM175.615 25.9273V36.3498C175.615 37.0758 175.783 37.6073 176.12 37.9443C176.483 38.2554 177.08 38.411 177.909 38.411H180.437V43H177.015C172.426 43 170.131 40.7703 170.131 36.3109V25.9273H167.565V21.4549H170.131V16.127H175.615V21.4549H180.437V25.9273H175.615ZM186.765 43.2722C185.779 43.2722 184.963 42.9741 184.314 42.3778C183.692 41.7555 183.381 40.9907 183.381 40.0832C183.381 39.1758 183.692 38.4239 184.314 37.8276C184.963 37.2054 185.779 36.8943 186.765 36.8943C187.724 36.8943 188.515 37.2054 189.137 37.8276C189.759 38.4239 190.07 39.1758 190.07 40.0832C190.07 40.9907 189.759 41.7555 189.137 42.3778C188.515 42.9741 187.724 43.2722 186.765 43.2722Z" fill="#1161E5"/>
<g clip-path="url(#clip0_6914_7310)">
<rect width="58" height="58" fill="#1160E5"/>
<path opacity="0.1" d="M49.9438 36.4105C49.9438 44.7883 43.4994 49.6216 36.4105 49.6216C29.826 49.6216 24.4883 42.995 24.4883 36.4105C24.4883 29.826 29.826 24.4883 36.4105 24.4883C42.995 24.4883 49.9438 29.826 49.9438 36.4105Z" fill="black"/>
<path d="M30.2891 43.8242V57.6798" stroke="white" stroke-width="3.22222" stroke-linecap="round"/>
<path d="M29 0V13.8556" stroke="white" stroke-width="3.22222" stroke-linecap="round"/>
<circle cx="29.3201" cy="28.6776" r="15.7889" fill="white"/>
<path d="M30.6104 12.9395C37.8738 13.5252 43.7476 19.027 44.9043 26.1143C44.7164 26.1387 44.5295 26.1963 44.3525 26.291C42.8697 27.0846 41.2805 27.545 39.5488 28.0527C37.8792 28.5423 36.032 29.086 34.3867 30.0762C32.6803 31.1032 31.2135 32.5907 30.1992 34.9033C29.2052 37.17 28.6787 40.1535 28.6787 44.1445V44.4512C21.3508 44.1566 15.3082 38.8693 13.8633 31.8975C14.113 31.8964 14.3661 31.8397 14.6025 31.7158C16.1229 30.9195 17.7513 30.4566 19.5195 29.9492C21.226 29.4595 23.1073 28.9182 24.7822 27.9316C26.5181 26.9091 28.0168 25.4245 29.0547 23.1084C30.0721 20.8378 30.6104 17.8497 30.6104 13.8555V12.9395ZM45.0889 29.5215C44.6955 36.9821 39.1243 43.0678 31.9014 44.2539V44.1445C31.9014 40.4024 32.4001 37.908 33.1504 36.1973C33.8805 34.5325 34.8776 33.5418 36.0488 32.8369C37.2811 32.0954 38.726 31.6527 40.4561 31.1455C41.8876 30.7258 43.5036 30.2624 45.0889 29.5215ZM27.3877 13.8555C27.3877 17.5943 26.8791 20.0842 26.1143 21.791C25.3699 23.4522 24.3508 24.4459 23.1465 25.1553C21.8812 25.9005 20.3981 26.3454 18.6309 26.8525C17.0559 27.3045 15.2668 27.8033 13.5352 28.6455C13.5507 20.5951 19.5912 13.9592 27.3877 13.0059V13.8555Z" fill="#57FF81"/>
</g>
<defs>
<clipPath id="clip0_6914_7310">
<rect width="58" height="58" fill="white"/>
</clipPath>
</defs>
</svg>
