<svg width="10" height="10" viewBox="0 0 10 10" fill="none" xmlns="http://www.w3.org/2000/svg">
<path d="M7.83069 4.03171H7.60412C7.60412 4.03171 7.43442 4.03171 7.32113 4.15293L7.22999 4.25046L6.76211 3.47716C6.61845 3.26212 6.44527 3.18084 6.4036 3.16366C6.04466 2.97695 5.12927 2.99924 5.02861 3.00249H4.97522C4.87149 2.99924 3.95569 2.97695 3.59678 3.16366C3.55512 3.18084 3.38151 3.26258 3.23524 3.48181L2.7704 4.25094L2.67925 4.1534C2.56598 4.03219 2.39626 4.03219 2.39626 4.03219H2.1697C2.07595 4.03219 2 4.11346 2 4.21378C2 4.31409 2.07595 4.39537 2.1697 4.39537H2.50911C2.55208 4.39537 2.5868 4.41302 2.61371 4.43485C2.22699 4.68658 2.22612 5.12223 2.22612 5.12223V6.75755C2.22612 6.89131 2.32768 7 2.45269 7H3.01866C3.14366 7 3.24523 6.89132 3.24523 6.75755V6.51511H6.75477V6.75755C6.75477 6.89131 6.85633 7 6.98134 7H7.54731C7.67231 7 7.77388 6.89132 7.77388 6.75755V5.12223C7.77388 5.12223 7.77301 4.68657 7.38629 4.43485C7.4132 4.41302 7.44792 4.39537 7.49089 4.39537H7.8303C7.92405 4.39537 8 4.31409 8 4.21378C8 4.11346 7.92405 4.03219 7.8303 4.03219L7.83069 4.03171ZM3.21226 5.60248C3.15757 5.64288 3.09117 5.66703 3.01912 5.66703C2.89368 5.66703 2.78387 5.59365 2.72528 5.48544C2.6962 5.43203 2.67928 5.36979 2.67928 5.30385C2.67928 5.10321 2.83119 4.94065 3.01869 4.94065C3.20619 4.94065 3.35853 5.10321 3.35853 5.30385C3.35853 5.42786 3.30037 5.537 3.21183 5.60295L3.21226 5.60248ZM3.05341 4.39542C3.01 4.39542 2.98396 4.34387 3.0074 4.30485L3.42276 3.61794C3.53865 3.44378 3.67711 3.38989 3.67754 3.38989L3.6923 3.38339C3.94967 3.24545 4.70054 3.23616 4.97185 3.24452H5.03174C5.29954 3.23662 6.05041 3.24545 6.30818 3.38339L6.32207 3.38943C6.32337 3.38989 6.46183 3.44377 6.5751 3.61329L6.9935 4.30485C7.01694 4.34386 6.9909 4.39542 6.94749 4.39542L3.05341 4.39542ZM7.27517 5.48548C7.21657 5.59416 7.10677 5.66707 6.98133 5.66707C6.90972 5.66707 6.84331 5.64292 6.78819 5.60252C6.69965 5.53703 6.64149 5.42741 6.64149 5.30342C6.64149 5.10277 6.7934 4.94022 6.98133 4.94022C7.16883 4.94022 7.32074 5.10277 7.32074 5.30342C7.32074 5.36983 7.30382 5.4316 7.27474 5.48501L7.27517 5.48548Z" fill="#1F41BB"/>
<path d="M8.25 1C8.66358 1 9 1.33643 9 1.75V8.25C9 8.66358 8.66358 9 8.25 9H1.75C1.33643 9 1 8.66358 1 8.25V1.75C1 1.33643 1.33643 1 1.75 1H8.25ZM8.25 0H1.75C0.783687 0 0 0.783687 0 1.75V8.25C0 9.21631 0.783687 10 1.75 10H8.25C9.21631 10 10 9.21631 10 8.25V1.75C10 0.783687 9.21631 0 8.25 0Z" fill="#1F41BB"/>
</svg>
